<svg id="Capa_1" data-name="Capa 1" xmlns="http://www.w3.org/2000/svg" viewBox="0 0 347.9 300.54"><defs><style>.cls-1{fill:#0454a2;}</style></defs><title>logo4</title><path class="cls-1" d="M355,53.82v173a1.4,1.4,0,0,1-.65.25c-.44,0-.88.11-1.32.14-1.14.08-2.29.12-3.43.24-.85.09-1.7.11-2.55.19-1.12.09-2.23.2-3.34.28l-3.26.22-2.64.22-3.34.28c-1,.08-2.06.12-3.08.24-.76.09-1.53.1-2.29.16-1.11.1-2.23.21-3.34.29s-2.23.14-3.35.22l-2.55.2c-1.12.1-2.23.21-3.34.29s-2.18.12-3.26.23c-.79.08-1.58.12-2.38.18-1.11.09-2.22.21-3.34.29s-2.29.14-3.43.22l-2.64.21c-1.12.09-2.23.2-3.34.28s-2.18.15-3.26.22l-2.55.21c-1.09.09-2.17.2-3.26.28s-2.23.11-3.34.23c-.88.1-1.76.12-2.64.2l-3.61.29c-1,.08-2.12.11-3.17.23-.79.1-1.58.11-2.37.18-1.15.11-2.29.2-3.43.29s-2.12.11-3.17.23c-.82.1-1.65.11-2.47.18l-3.43.29c-1.11.09-2.23.14-3.34.22-.88.06-1.76.14-2.64.22l-3.34.28c-1.06.08-2.12.11-3.17.23-.79.09-1.59.11-2.38.17-1.17.1-2.34.21-3.52.3s-2.23.11-3.34.23c-.85.09-1.71.11-2.56.19-1.11.09-2.22.2-3.34.28s-2.17.15-3.25.23l-2.47.2c-1.14.1-2.28.2-3.43.28s-2.23.11-3.34.24c-.85.09-1.71.11-2.56.18-1.17.11-2.34.21-3.51.29s-2.12.11-3.17.24c-.79.09-1.59.11-2.38.18-1.14.11-2.28.2-3.43.29s-2.17.11-3.26.23c-.85.1-1.7.11-2.55.18l-3.43.29c-1.08.08-2.17.11-3.26.23-.82.09-1.64.12-2.46.19l-3.25.29c-1.09.08-2.18.11-3.26.23-.85.1-1.7.12-2.55.19-1.2.11-2.41.2-3.61.3s-2.12.1-3.17.23c-.79.09-1.58.1-2.37.17-1.12.1-2.23.21-3.34.29s-2.18.12-3.26.23c-.79.09-1.59.12-2.38.18l-3.34.29-3.43.22-2.64.21c-1.09.09-2.17.2-3.26.28s-2.17.11-3.25.23c-.85.1-1.71.12-2.56.19q-1.85.16-3.69.3c-1.12.08-2.24.1-3.35.23-.85.1-1.7.11-2.55.19-1.14.11-2.29.2-3.43.29s-2.06.1-3.08.23c-.82.1-1.64.11-2.46.19-1.17.11-2.35.2-3.52.29s-2.18.11-3.26.23c-.76.08-1.53.1-2.29.16-1.14.09-2.28.21-3.43.29s-2.17.15-3.25.23c-.89.06-1.76.14-2.64.21-1.09.09-2.17.2-3.26.28s-2.23.11-3.34.23c-.82.09-1.65.11-2.47.18l-3.34.29-3.35.22-2.55.2-3.25.29c-1.09.08-2.18.11-3.26.23-.88.09-1.76.12-2.64.19-1.11.09-2.22.2-3.34.28s-2.23.14-3.35.22l-2.64.22-3.34.28-3.17.22-4.4.33c-1.14.09-2.28.19-3.43.27-.85.07-1.7.14-2.55.18-.59,0-.87-.24-.91-.84,0-.41,0-.82,0-1.23q0-44.61,0-89.22V72.68c0-.2,0-.41,0-.61a.8.8,0,0,1,.78-.82c.61-.08,1.23-.12,1.84-.16s1.18,0,1.77-.07l4.75-.29,4-.22c1.38-.09,2.76-.21,4.14-.29s2.94-.15,4.41-.22c.14,0,.29,0,.44,0l4.93-.31c1.35-.07,2.71-.13,4.06-.21s2.7-.21,4-.29,3-.15,4.49-.22l.44,0c1.56-.11,3.11-.21,4.67-.3l4.14-.22c1.44-.09,2.88-.21,4.32-.29s3-.15,4.5-.22l.44,0,4.67-.29,4-.22c1.41-.09,2.82-.21,4.23-.29,1.58-.09,3.17-.15,4.76-.22l.35,0,4.67-.3c1.38-.08,2.77-.11,4.14-.22,1.85-.13,3.7-.27,5.56-.33l.44,0c1.49-.1,3-.21,4.49-.3s3-.13,4.49-.21l5.73-.35.35,0,4.58-.3c1.33-.08,2.65-.13,4-.22l4.49-.29c1.5-.09,3-.15,4.5-.22l.35,0c1.53-.1,3.05-.21,4.58-.3,1.35-.08,2.71-.1,4.05-.22,1-.1,2.06-.11,3.09-.18,1.44-.09,2.88-.21,4.31-.29s3.06-.15,4.59-.22c.12,0,.23,0,.35,0l4.49-.29,4.15-.22,5.55-.33.44,0c1.47-.1,2.93-.21,4.4-.3l4.5-.21c.12,0,.23,0,.35,0,1.53-.1,3-.21,4.58-.3,1.35-.08,2.71-.12,4.06-.22,1.82-.14,3.63-.26,5.46-.33l.53,0c1.55-.1,3.11-.21,4.67-.29s3.05-.15,4.58-.22l.27,0,4.31-.29c1.41-.09,2.83-.11,4.23-.23,1-.09,2.06-.12,3.09-.18,1.38-.09,2.75-.21,4.13-.29s2.94-.15,4.41-.22l.35,0,4.41-.29c1.41-.09,2.82-.12,4.23-.22,1.91-.14,3.82-.28,5.73-.34l.44,0c1.55-.1,3.11-.21,4.67-.3l4.76-.22.35,0c1.53-.1,3.05-.21,4.58-.3,1.29-.08,2.59-.11,3.88-.23.94-.09,1.88-.11,2.82-.17,1.38-.1,2.76-.21,4.14-.29s3-.15,4.58-.22l.35,0c1.62-.1,3.23-.21,4.85-.3l4-.22c1.38-.09,2.75-.21,4.13-.29s3-.15,4.5-.22l.35,0c1.62-.1,3.23-.21,4.85-.3,1.38-.08,2.76-.1,4.14-.23,1-.09,2-.1,3-.17,1.41-.1,2.81-.21,4.22-.29s2.88-.15,4.32-.22l.44,0c1-.14,2-.1,3-.15A.94.94,0,0,1,355,53.82ZM96.1,177.92h0c0-1,0-2.06-.07-3.09s0-2.06.09-3.09a11.45,11.45,0,0,1,.79-3.61c.87-2.11,2.35-2.67,4.4-1.71a12.44,12.44,0,0,1,1.88,1.15,34.23,34.23,0,0,1,3.63,3c3.36,3.13,6.57,6.42,9.71,9.78,3.75,4,7.46,8.09,11.19,12.14s7.3,8,11.08,11.89c2.25,2.3,4.55,4.53,7,6.66a24.61,24.61,0,0,0,3.54,2.63,10.31,10.31,0,0,0,1.09.57,2.89,2.89,0,0,0,3.57-.9,8.72,8.72,0,0,0,.55-.8,11.13,11.13,0,0,0,1.35-3.53,49.64,49.64,0,0,0,.85-8.33c.14-3.42-.06-6.83-.18-10.25,0-.08,0-.17,0-.26-.11-1.85-.21-3.7-.31-5.56-.07-1.41-.14-2.82-.22-4.23-.15-2.64-.32-5.29-.45-7.93-.1-1.82-.16-3.65-.23-5.47l0-.44c-.1-1.68-.2-3.35-.29-5s-.12-3.12-.24-4.67c-.08-1.12-.11-2.24-.17-3.35-.1-1.77-.21-3.53-.3-5.29s-.15-3.24-.23-4.85c0-1.15-.11-2.3-.2-3.44a60.66,60.66,0,0,1-.27-7.5,19.05,19.05,0,0,1,.69-4.62,11.18,11.18,0,0,1,3.38-5.49c.51-.45,1-.86,1.56-1.3.36-.3.73-.6,1.07-.92a4.77,4.77,0,0,0,1.43-2.77,13.21,13.21,0,0,0,0-3.87,6.51,6.51,0,0,0-2.64-4.53,10.09,10.09,0,0,0-3-1.47,21.12,21.12,0,0,0-6.8-.82c-.88,0-1.77.07-2.65.13s-1.93.14-2.9.23c-1.52.14-3,.34-4.57.44a27,27,0,0,0-3.24.4,13.91,13.91,0,0,0-3.92,1.3,5.75,5.75,0,0,0-3.24,5.11c-.06.94,0,1.88,0,2.82a5.3,5.3,0,0,0,1.87,4.14c.46.41,1,.78,1.45,1.15s.88.59,1.32.88a9.14,9.14,0,0,1,4,5.69,49.47,49.47,0,0,1,1.07,5.91c.2,1.57.3,3.16.41,4.75.15,2.35.12,4.71.07,7.06a6.72,6.72,0,0,1-.77,3,2.57,2.57,0,0,1-3.18,1.38,5,5,0,0,1-.9-.37,7.43,7.43,0,0,1-.88-.58c-1.22-.88-2.38-1.83-3.52-2.81-2.42-2.07-4.68-4.31-7-6.51-4.07-3.88-8-7.93-11.88-12-3.46-3.58-6.83-7.23-10-11a31.68,31.68,0,0,0-4.14-4.21,16.84,16.84,0,0,0-4.2-2.58,13.22,13.22,0,0,0-5.7-1c-1.58.06-3.16.23-4.75.36-2,.16-3.92.41-5.86.75a24.75,24.75,0,0,0-6,1.73A12.43,12.43,0,0,0,68,113.84a6.44,6.44,0,0,0-2.84,4.49,14.58,14.58,0,0,0-.05,2.47,5.54,5.54,0,0,0,1.6,3.82,9.56,9.56,0,0,0,1.84,1.51c.7.43,1.4.87,2.12,1.26A8.36,8.36,0,0,1,74.63,132l.37,1a45.48,45.48,0,0,1,1.93,7.79q.46,2.84.75,5.69c.27,2.64.57,5.27.81,7.91s.39,5.16.58,7.74c.08,1,.14,2,.19,3,.1,1.68.23,3.35.28,5q.12,3.8.15,7.59c0,5.27,0,10.54,0,15.81a13.59,13.59,0,0,1-.21,2.38,11.2,11.2,0,0,1-2.76,5.54c-.62.7-1.31,1.35-2,2-.37.38-.74.76-1.08,1.17a3.51,3.51,0,0,0-.81,2.37c0,.83,0,1.65,0,2.47a5.57,5.57,0,0,0,1.59,4,10.43,10.43,0,0,0,2.8,2.14,20.34,20.34,0,0,0,8.36,2.28,33.35,33.35,0,0,0,5.74-.16,43,43,0,0,0,5.39-.91,16.68,16.68,0,0,0,7-3.5,9.57,9.57,0,0,0,1.56-1.68,5.62,5.62,0,0,0,1.09-3.29,10.18,10.18,0,0,0-.59-3.38,6.87,6.87,0,0,0-2.51-3.44c-.67-.48-1.33-1-2-1.48A9.81,9.81,0,0,1,98,195.65a22.24,22.24,0,0,1-1-3.92,54.73,54.73,0,0,1-.87-9.22C96.07,181,96.1,179.45,96.1,177.92Zm160.8-18.11h0c0-2,0-4,0-6a30.5,30.5,0,0,0-.22-3.17,59.91,59.91,0,0,0-2.18-10.18,65.77,65.77,0,0,0-5.17-12.27,60.42,60.42,0,0,0-13.72-17.14,35.81,35.81,0,0,0-9.2-5.87,33.27,33.27,0,0,0-11.19-2.68,43.86,43.86,0,0,0-7,.09,36.85,36.85,0,0,0-5.9,1.06,42.74,42.74,0,0,0-10,4.24,40,40,0,0,0-13.07,11.8,58.29,58.29,0,0,0-6.3,11.62,48,48,0,0,0-2.42,7.84A78.75,78.75,0,0,0,169,153.26c-.06,1.65,0,3.3,0,5a52,52,0,0,0,.24,5.29,60.7,60.7,0,0,0,1,6.71,59.65,59.65,0,0,0,9.16,21.85,49,49,0,0,0,9.12,10.16A39.89,39.89,0,0,0,202.93,210a39,39,0,0,0,6.14,1.22c1.06.12,2.12.13,3.17.22a11.47,11.47,0,0,0,1.85.05c1.29-.11,2.59-.12,3.88-.27a35.68,35.68,0,0,0,6.55-1.39,42.61,42.61,0,0,0,17.94-11.36,52.18,52.18,0,0,0,9.83-14.37A50.51,50.51,0,0,0,257,162.9c0-.41,0-.82,0-1.24Zm64.82-6.37h0c0-.86,0-1.71,0-2.56a63.84,63.84,0,0,0-.34-7.32,58.12,58.12,0,0,0-1.81-9.8,18.12,18.12,0,0,0-2.1-5,10.91,10.91,0,0,0-1-1.33,3.31,3.31,0,0,0-5.16.63,9.47,9.47,0,0,0-.77,2,20.44,20.44,0,0,0-.54,3.49c-.14,1.43-.25,2.87-.39,4.3a16.36,16.36,0,0,1-.51,2.69,7,7,0,0,1-.53,1.4,3.15,3.15,0,0,1-2.55,1.8,27.06,27.06,0,0,1-4.5.09,10.74,10.74,0,0,1-2.18-.33,3.91,3.91,0,0,1-2.92-2.79c-.07-.23-.12-.46-.17-.69a16.54,16.54,0,0,1-.25-2.9c-.08-2.73-.07-5.47-.23-8.21-.08-1.38-.13-2.76-.25-4.14a28.25,28.25,0,0,1-.08-3.79,11.58,11.58,0,0,1,.65-3.64,5.63,5.63,0,0,1,2.9-3.18,8,8,0,0,1,1.84-.61,26.86,26.86,0,0,1,4.73-.52c1.47,0,2.95,0,4.42,0a31,31,0,0,1,5.61.55,13.42,13.42,0,0,1,8.09,4.68,19.19,19.19,0,0,1,1.52,2.17l2.06,3.3a6.93,6.93,0,0,0,1.12,1.36,3.69,3.69,0,0,0,1.43.84,4.24,4.24,0,0,0,4.71-1.56,7.69,7.69,0,0,0,.63-1.07,12.92,12.92,0,0,0,1.22-5.29,28.15,28.15,0,0,0-.22-3.79,42.05,42.05,0,0,0-1.52-7.53,44.45,44.45,0,0,0-1.62-4.76,17.11,17.11,0,0,0-2.76-4.6,4.58,4.58,0,0,0-4.76-1.57,19.81,19.81,0,0,0-3.11,1A29.15,29.15,0,0,1,311.56,99c-.21,0-.41,0-.62,0-1.61.18-3.23.11-4.85.28-1.19.13-2.4.15-3.61.23l-2.46.21c-1,.09-2.11.2-3.16.28s-2.12.15-3.17.22c-2.06.16-4.11.34-6.16.47s-4.12.29-6.17.34c-2.65.06-5.3.24-7.95.21a36.27,36.27,0,0,0-6.16.36,23.3,23.3,0,0,0-2.86.56,5.88,5.88,0,0,0-4.46,5.77,17.5,17.5,0,0,0,.27,3,3.46,3.46,0,0,0,2.15,2.72l.57.23c.68.28,1.37.54,2,.86a6.89,6.89,0,0,1,3.43,3.54,13.12,13.12,0,0,1,.46,1.24,25.76,25.76,0,0,1,.78,3c.7,3.31,1.28,6.65,1.69,10,.21,1.69.4,3.39.57,5.09s.33,3.63.45,5.45c.11,1.53.16,3.06.23,4.59q.15,3.79.31,7.59c.07,1.58.15,3.17.22,4.76.11,2.29.23,4.59.3,6.88.1,2.77.15,5.53.22,8.3,0,.24,0,.47.05.7a21.26,21.26,0,0,1,0,3.09c-.1,1.5-.08,3-.25,4.5s-.25,3-.41,4.48a13.73,13.73,0,0,1-.6,2.76,8,8,0,0,1-3.49,4.51l-.82.52A5,5,0,0,0,266,199a7.37,7.37,0,0,0,0,2.81,4.13,4.13,0,0,0,2.33,3.22,11.4,11.4,0,0,0,2.68.89,27.6,27.6,0,0,0,7,.28c1.36-.07,2.7-.19,4.05-.28l3.35-.22c1.62-.1,3.23-.21,4.85-.3s3.11-.14,4.67-.21l.35,0,4.14-.29c1.21-.07,2.41-.1,3.61-.22.88-.1,1.77-.11,2.65-.18l3.6-.3c1.09-.08,2.18-.12,3.26-.22,1.76-.16,3.52-.31,5.29-.34a4.17,4.17,0,0,0,.61,0,19.78,19.78,0,0,1,3.44-.05c1.24.09,2.47.09,3.71.13l5.91.2a4.21,4.21,0,0,1,.62,0c1.17.13,2.35.1,3.53.12a3.48,3.48,0,0,0,3.19-1.86,10.66,10.66,0,0,0,.76-1.69A93.29,93.29,0,0,0,344.27,184a33.67,33.67,0,0,0,.64-6.58,18.3,18.3,0,0,0-1.17-6,10.05,10.05,0,0,0-1.36-2.57,6.77,6.77,0,0,0-1.26-1.36,3.15,3.15,0,0,0-4.2.11,5.88,5.88,0,0,0-.87,1,11.58,11.58,0,0,0-1.33,2.38c-.82,2-1.54,4-2.16,6a21.07,21.07,0,0,1-3.83,7,11.14,11.14,0,0,1-5.27,3.7,51.16,51.16,0,0,1-10.65,2.47,19.79,19.79,0,0,1-5.27-.08,11.66,11.66,0,0,1-3.77-1.22,6.25,6.25,0,0,1-2.6-2.57,6.76,6.76,0,0,1-.65-2c-.46-2.49-.82-5-1.13-7.51a73.92,73.92,0,0,1-.64-8c0-.44,0-.89-.05-1.33-.12-1.26-.13-2.52-.13-3.79a10.48,10.48,0,0,1,.52-3,5.22,5.22,0,0,1,.64-1.35,3.34,3.34,0,0,1,2-1.43,5.68,5.68,0,0,1,1.23-.16h2.21a5.34,5.34,0,0,1,4.19,1.93,11.09,11.09,0,0,1,1.8,2.82,17.8,17.8,0,0,1,1.26,4.58c.11.79.22,1.58.36,2.36a5.61,5.61,0,0,0,.8,2,2.18,2.18,0,0,0,2.07,1.1,3.79,3.79,0,0,0,2.86-1.37,9.22,9.22,0,0,0,1.53-2.67,23.93,23.93,0,0,0,.93-3.31,32.82,32.82,0,0,0,.69-6.4C321.75,157,321.72,155.2,321.72,153.44Zm-30-62.93a19.76,19.76,0,0,0,5.13-.81,35.09,35.09,0,0,0,14.92-9.43,16.9,16.9,0,0,0,3.35-5,7.11,7.11,0,0,0,.55-1.67,5.45,5.45,0,0,0-1.5-5.11,8.4,8.4,0,0,0-1.76-1.33,14.69,14.69,0,0,0-3.18-1.31,30,30,0,0,0-7.43-.88l-.35,0c-.9.11-1.81.2-2.71.34a12,12,0,0,0-3.47,1,6.4,6.4,0,0,0-1.28.77,2.7,2.7,0,0,0-.86,3.17c.11.31.26.6.38.9a4.34,4.34,0,0,1-.38,4.06,10.34,10.34,0,0,1-.84,1.13c-.76.9-1.54,1.79-2.31,2.68s-1.39,1.59-2.08,2.4a5.31,5.31,0,0,0-1.23,2.7,7,7,0,0,0,1,4.64,3.16,3.16,0,0,0,2.28,1.53A9.33,9.33,0,0,0,291.68,90.51Z" transform="translate(-7.09 -1.69)"/><path class="cls-1" d="M15.93,1.69l3.61.83A104.19,104.19,0,0,1,39.25,8.88c1.27.56,2.51,1.18,3.74,1.8a15.85,15.85,0,0,1,2.75,1.76,10.61,10.61,0,0,1,4,6.85,12.42,12.42,0,0,1,.16,2.11V292a15,15,0,0,1-.18,3,10.3,10.3,0,0,1-3.25,5.74,6.29,6.29,0,0,1-1.84,1.2c-.21.09-.41.22-.62.33H41.55c-.24-.11-.48-.23-.73-.33-1.22-.5-2.45-1-3.67-1.5-5.5-2.37-10.94-4.89-16.39-7.39-2.75-1.27-5.48-2.57-8.29-3.7-.85-.34-1.7-.66-2.54-1a3.25,3.25,0,0,1-2-2.38c-.06-.23-.11-.46-.16-.69-.11-.51-.23-1-.33-1.55a1.36,1.36,0,0,0-.32-.71v-5.13a1.72,1.72,0,0,0,.29-.91c0-1.15.18-2.29.18-3.44q0-22.08,0-44.17,0-62.1,0-124.19,0-32.64,0-65.28c0-3,0-5.89-.08-8.84-.19-7.53-.1-15.07.12-22.6A8.83,8.83,0,0,1,8.35,5a5.15,5.15,0,0,1,3.3-3c.31-.09.61-.21.92-.32Zm12.78,218.2a16.47,16.47,0,0,0,1.82-.14,10.71,10.71,0,0,0,4.62-2.08,15.19,15.19,0,0,0,4.9-6.57,27.32,27.32,0,0,0,2-9.9,25.93,25.93,0,0,0-.34-4.4,28.76,28.76,0,0,0-1.78-6.63,17.15,17.15,0,0,0-4.69-6.54,9.65,9.65,0,0,0-10.32-1.47,14.77,14.77,0,0,0-6,5.14,21.78,21.78,0,0,0-3.55,11,29.22,29.22,0,0,0,.14,5.37,29.6,29.6,0,0,0,1.26,6,17.69,17.69,0,0,0,4.44,7.22A10.43,10.43,0,0,0,28.71,219.89ZM15.27,60.6a21.26,21.26,0,0,0,.16,3,17.82,17.82,0,0,0,2.89,8.07,8.34,8.34,0,0,0,2.48,2.47,5.53,5.53,0,0,0,6.3-.2,8.44,8.44,0,0,0,1.48-1.38,16.69,16.69,0,0,0,2.48-4.05,26.61,26.61,0,0,0,1.23-3.69c.42-1.59.84-3.18,1.28-4.77A7.59,7.59,0,0,1,34,58.87a1.66,1.66,0,0,1,3.17.25,7.63,7.63,0,0,1,.2,1,14.84,14.84,0,0,1,.18,3.26,9.42,9.42,0,0,1-3.44,7.26c-.33.29-.68.57-1,.87A4.91,4.91,0,0,0,32,73a2.39,2.39,0,0,0-.22,1.37A1.77,1.77,0,0,0,33.35,76a2,2,0,0,0,.35,0,6.86,6.86,0,0,0,4.75-1.58A6.1,6.1,0,0,0,40.71,71,44.76,44.76,0,0,0,42,60.48c0-.8-.09-1.59-.13-2.38A25.64,25.64,0,0,0,41,52.45,16,16,0,0,0,38,46.66a6.5,6.5,0,0,0-2.81-2.07,5.84,5.84,0,0,0-6.32,1.18,7.17,7.17,0,0,0-1.45,1.88,18.11,18.11,0,0,0-1.21,2.65,27.8,27.8,0,0,0-.86,3c-.37,1.55-.71,3.1-1.07,4.65a9.73,9.73,0,0,1-.76,2.16,3.36,3.36,0,0,1-.72,1,1.65,1.65,0,0,1-2.47-.31,3.32,3.32,0,0,1-.51-1.21,7.82,7.82,0,0,1-.14-1.93A9.71,9.71,0,0,1,21,53.42c.41-.71.86-1.4,1.3-2.1l1.08-1.71a3.78,3.78,0,0,0,.44-2.82,2.41,2.41,0,0,0-3.24-1.95,4.65,4.65,0,0,0-1.58.77,11.37,11.37,0,0,0-2.11,2A3.78,3.78,0,0,0,16,51.16a6.3,6.3,0,0,1,0,3.05A26.35,26.35,0,0,0,15.27,60.6ZM41.86,88a55.21,55.21,0,0,0-.21-5.89c0-.56-.11-1.12-.2-1.67a6.3,6.3,0,0,0-.64-1.92,2.08,2.08,0,0,0-.6-.75,1.13,1.13,0,0,0-1.79.54,2.58,2.58,0,0,0-.08.26,2.05,2.05,0,0,0-.07.34,3.82,3.82,0,0,1-2,3c-2.32,1.45-4.63,2.92-6.94,4.39-2.59,1.63-5.18,3.27-7.61,5.14a38.11,38.11,0,0,0-3.69,3.15,11.39,11.39,0,0,0-1.41,1.69,8.83,8.83,0,0,0-.84,8.51,4.68,4.68,0,0,0,.35.71,3,3,0,0,0,1.91,1.46,5.46,5.46,0,0,0,1.75.17,6.7,6.7,0,0,1,3.08.68c.37.17.74.36,1.1.56a143.17,143.17,0,0,1,12.34,7.73,4.32,4.32,0,0,1,1.51,1.69c.2.43.35.87.51,1.32s.28.83.45,1.24a1.22,1.22,0,0,0,1.11.88,1.29,1.29,0,0,0,1.17-.81,3.22,3.22,0,0,0,.4-1.25c.08-.73.16-1.46.23-2.19a36.06,36.06,0,0,0-.09-7.49,6.65,6.65,0,0,0-.34-1.64,3,3,0,0,0-.76-1.28,1,1,0,0,0-1.67.25,6.27,6.27,0,0,0-.38,1.08,3.16,3.16,0,0,1-.34.9,1,1,0,0,1-1.22.45,2,2,0,0,1-1.41-1.56,7.73,7.73,0,0,1-.19-1.92v-5a24.87,24.87,0,0,1,.18-3A4.34,4.34,0,0,1,36,96.12a1.22,1.22,0,0,1,2.2.08,7.77,7.77,0,0,1,.37,1,2.88,2.88,0,0,0,.38.79,1,1,0,0,0,1.47.23,2,2,0,0,0,.7-.89,4.37,4.37,0,0,0,.37-1.45A66.41,66.41,0,0,0,41.86,88Zm0,151.36a23,23,0,0,0-1.26-8.07,22,22,0,0,1-.91-3.59A4.55,4.55,0,0,0,38.29,225a7.4,7.4,0,0,0-2.92-1.6,1.75,1.75,0,0,0-1.84.56,1.78,1.78,0,0,0-.47,1.87,5.4,5.4,0,0,0,.51,1,12.68,12.68,0,0,1,1.54,3.93,20.15,20.15,0,0,1,.31,4.84,10.13,10.13,0,0,1-8.6,9.86,6,6,0,0,1-2.46-.05,5.12,5.12,0,0,1-3.87-3.95,9.31,9.31,0,0,1,0-4.2,9.6,9.6,0,0,1,4.15-6.42,8.84,8.84,0,0,0,.77-.6,3.74,3.74,0,0,0,1-1.33,5,5,0,0,0-.67-5.24,3.26,3.26,0,0,0-2.41-1.32,6.61,6.61,0,0,0-4.14,1A4.55,4.55,0,0,0,16.91,228a7.24,7.24,0,0,1-.16,2.54c-.09.43-.24.85-.37,1.27a22.44,22.44,0,0,0-1.09,5.44,25.56,25.56,0,0,0,1,9,21.38,21.38,0,0,0,3.2,6.75,14.49,14.49,0,0,0,4.08,4,9.21,9.21,0,0,0,8.22.9,12.29,12.29,0,0,0,6-4.69,21.9,21.9,0,0,0,1.89-3.29A23.3,23.3,0,0,0,41.9,239.37ZM16,169.89h0c0,1.86,0,3.71,0,5.57a6.71,6.71,0,0,0,.35,2.17,2.29,2.29,0,0,0,.39.78,1,1,0,0,0,1.55.13,1.62,1.62,0,0,0,.45-.65c.13-.36.25-.72.36-1.09s.27-.9.44-1.34a1.65,1.65,0,0,1,1.22-1.05,5.26,5.26,0,0,1,1.31-.14c3.74,0,7.48,0,11.22,0,.94,0,1.88.09,2.82.17a2.15,2.15,0,0,1,2,1.48c.13.36.29.71.44,1.06a2,2,0,0,0,.42.67.94.94,0,0,0,1.21.12,1.67,1.67,0,0,0,.58-.66,8.72,8.72,0,0,0,.41-1.07,14.77,14.77,0,0,0,.5-3,47.07,47.07,0,0,0,.2-6.17,34.78,34.78,0,0,0-.57-5.09,5.45,5.45,0,0,0-.57-1.66,2.1,2.1,0,0,0-.68-.8.68.68,0,0,0-.89,0,2.21,2.21,0,0,0-.69.91c-.19.39-.35.81-.55,1.2a2.36,2.36,0,0,1-2.19,1.39c-.53,0-1.05.08-1.58.11s-.89.05-1.33,0c-.67,0-.92-.32-1-1a2.11,2.11,0,0,1,0-.35c0-.94,0-1.89.07-2.83a19.39,19.39,0,0,0-.26-5.27,16.43,16.43,0,0,0-2.07-5.7,7.94,7.94,0,0,0-1.95-2.25,6.18,6.18,0,0,0-6.49-.88,6.72,6.72,0,0,0-3.3,3.08,17.2,17.2,0,0,0-1.8,4.87,29.46,29.46,0,0,0-.3,7.56c.11,2.21.32,4.41.3,6.62C16,167.89,16,168.89,16,169.89Zm-.53-38.69a36.82,36.82,0,0,0,.7,8.34,7.51,7.51,0,0,0,.55,1.86,2.4,2.4,0,0,0,.49.73.85.85,0,0,0,1.13.1,2.36,2.36,0,0,0,.76-.84c.2-.36.38-.73.58-1.09a3.21,3.21,0,0,1,2.43-1.71,32,32,0,0,1,3.78-.35c2.3-.11,4.59.08,6.88.19.73,0,1.47.1,2.2.17a9.48,9.48,0,0,1,1,.15,2.9,2.9,0,0,1,2.17,1.62,7.29,7.29,0,0,0,.42.78c.7,1.06,1.65,1,2.25-.08a6,6,0,0,0,.64-2.11,42.26,42.26,0,0,0,.39-5.63c0-1.56-.08-3.11-.23-4.67-.12-1.25-.32-2.5-.51-3.75a4.62,4.62,0,0,0-.76-2,1.26,1.26,0,0,0-2.09,0,4.71,4.71,0,0,0-.53,1.11A2.65,2.65,0,0,1,35.52,126a5.29,5.29,0,0,1-.78.13c-1.39,0-2.76.21-4.15.2-1.94,0-3.88,0-5.82,0a21.84,21.84,0,0,1-2.29-.16,4.11,4.11,0,0,1-3.74-2.9,3.58,3.58,0,0,0-.2-.49.88.88,0,0,0-1-.48,1.32,1.32,0,0,0-.88.53,3.85,3.85,0,0,0-.73,1.59,22.77,22.77,0,0,0-.52,4.11C15.42,129.35,15.45,130.23,15.45,131.2Z" transform="translate(-7.09 -1.69)"/><path class="cls-1" d="M355,274.5l-.12.42a5.37,5.37,0,0,1-2.72,3.53,9.94,9.94,0,0,1-4.12,1.22c-2.19.21-4.39.38-6.59.56l-6.42.53-5.36.47c-1.09.09-2.18.14-3.26.22l-3.25.29-2.29.19c-1.06.08-2.11.14-3.17.23l-3.08.26-2.37.21-3.26.23-3.43.28-2.64.21c-1.08.08-2.17.14-3.25.23s-2.11.18-3.17.27l-2.29.19-3.25.23c-1.21.09-2.41.18-3.61.29-.85.08-1.7.09-2.55.19-1.11.13-2.23.15-3.35.24s-2.17.16-3.25.27c-.82.09-1.65.08-2.47.19-1.05.13-2.11.16-3.16.24L269,286l-2.64.2-3.52.23-3.43.28-2.91.23-1.85.14-3.34.23-3.61.28c-1.06.08-2.11.17-3.17.23-.65,0-1.29.08-1.94.14-1.14.1-2.29.15-3.43.23l-3.52.28c-1,.08-2,.17-3,.23-.68,0-1.35.08-2,.14-1.2.11-2.4.16-3.61.24l-3.6.27c-1.06.08-2.12.17-3.17.23-.68,0-1.35.08-2,.15-1.17.1-2.35.15-3.52.23s-2.35.17-3.52.28c-.94.09-1.88.08-2.82.18-1.23.14-2.46.16-3.7.25s-2.46.16-3.69.28c-.88.08-1.77.07-2.65.18-1.13.13-2.28.16-3.43.24l-3.87.28c-1.12.08-2.23.17-3.35.23-.79,0-1.58.08-2.38.15-1.29.11-2.58.15-3.87.23s-2.35.19-3.52.28l-3.17.23-4.67.32c-1.35.09-2.7.15-4.05.23s-2.64.19-4,.28c-1.09.08-2.18.16-3.26.22-.71,0-1.41.09-2.12.15-1.26.1-2.52.15-3.78.23l-3.79.28-.44,0-4.23.22c-1.29.08-2.58.19-3.87.29-.91.07-1.82.07-2.73.16-1.29.14-2.59.16-3.88.25s-2.58.17-3.87.28c-1,.08-1.94.09-2.91.18-1.38.13-2.76.16-4.14.24l-4.32.29-.52,0c-2.27.13-4.53.25-6.79.4s-4.4.32-6.6.46c-1.5.1-3,.15-4.5.23s-2.82.18-4.23.29c-1,.07-2,.08-3,.17-1.35.14-2.7.16-4,.25s-2.7.18-4,.28l-.36,0-4.32.22c-1.47.09-2.93.18-4.4.29-1,.07-2.06.08-3.09.17-1.43.14-2.87.16-4.31.24s-2.65.19-4,.27c-1.11.08-2.23.17-3.34.22a8.29,8.29,0,0,1-2.71-.36,6,6,0,0,1-4.37-5.77c0-2.73,0-5.47,0-8.21q0-11.26,0-22.53c0-.32,0-.65,0-1a1,1,0,0,1,.88-1,4.08,4.08,0,0,1,.7-.11l3.61-.22c1.17-.08,2.35-.18,3.52-.28.85-.08,1.7-.09,2.55-.19,1.14-.12,2.29-.15,3.44-.24s2.23-.17,3.34-.28c.85-.08,1.7-.09,2.55-.19,1.11-.13,2.23-.15,3.35-.24s2.17-.16,3.25-.27c.82-.09,1.64-.08,2.46-.18,1.11-.13,2.23-.16,3.35-.25l3.61-.27.61-.05c2.15-.14,4.29-.25,6.43-.41,1.94-.13,3.87-.31,5.81-.46,1.11-.09,2.23-.14,3.34-.23s2.17-.18,3.26-.27l2.46-.2,3.44-.23,3.43-.27.61-.05c2.15-.14,4.29-.25,6.43-.41,1.94-.13,3.87-.31,5.81-.46,1.14-.09,2.29-.14,3.43-.23s2.17-.18,3.26-.29c.79-.07,1.58-.08,2.37-.17,1.14-.12,2.29-.16,3.44-.24s2.4-.17,3.6-.28c.91-.09,1.83-.08,2.74-.18,1.22-.14,2.46-.16,3.69-.25s2.41-.18,3.61-.27l2.55-.2,3.35-.23,3.34-.28,2.64-.21c1.14-.08,2.29-.14,3.44-.23l3.51-.27c1.06-.08,2.12-.17,3.17-.22.74,0,1.47-.08,2.21-.15,1.17-.11,2.34-.15,3.52-.24s2.17-.16,3.25-.27c.85-.09,1.7-.09,2.55-.19,1.11-.13,2.23-.16,3.35-.24l3.34-.28c1.09-.08,2.17-.17,3.26-.23.68,0,1.35-.07,2-.14,1.18-.1,2.35-.15,3.53-.23s2.22-.19,3.34-.27l3-.24c1.47-.11,2.93-.23,4.4-.33,1.2-.08,2.41-.14,3.61-.23s2.35-.18,3.52-.27l3-.23c1.12-.08,2.24-.13,3.35-.22s2.23-.19,3.34-.28c.76-.07,1.53-.08,2.29-.16,1.17-.12,2.35-.16,3.52-.24s2.47-.18,3.7-.29c.82-.08,1.64-.08,2.46-.17,1.11-.13,2.23-.17,3.35-.25l3.52-.28c1-.07,2-.17,3.08-.23.67,0,1.35-.08,2-.14,1.2-.11,2.41-.15,3.61-.24s2.35-.17,3.52-.28c.85-.08,1.71-.09,2.56-.18,1.13-.14,2.28-.16,3.43-.25s2.23-.15,3.34-.27c.91-.09,1.82-.08,2.73-.18,1.17-.14,2.35-.16,3.52-.25s2.35-.18,3.52-.27l3.08-.24,4.23-.32c1.17-.09,2.35-.15,3.52-.23s2.35-.17,3.52-.28c.88-.08,1.76-.08,2.64-.18,1.14-.13,2.29-.16,3.43-.25s2.29-.17,3.43-.28c.91-.08,1.82-.09,2.73-.19,1.17-.13,2.35-.16,3.53-.24s2.34-.17,3.51-.28c.94-.08,1.88-.09,2.82-.2,1.14-.12,2.29-.14,3.44-.23l3.25-.27c1-.08,2-.17,3-.22.68,0,1.35-.09,2-.15,1.2-.11,2.4-.15,3.61-.24l3.52-.27,3-.23,4.58-.34,3.43-.22,1.85-.16c.26,0,.53,0,.79,0a.82.82,0,0,1,.87.6Zm-160-16c-.38,0-.77,0-1.15,0s-.82.08-1.22.12a2,2,0,0,0-.83.29,1.61,1.61,0,0,0-.26,2.62c.11.1.23.19.35.28a2.44,2.44,0,0,1,.8,1.24,7.63,7.63,0,0,1,.2.95c.19,1.22.26,2.45.35,3.68s.2,2.52.28,3.79c.09,1.49.19,3,.25,4.49a4.25,4.25,0,0,1-1,3.11,1.69,1.69,0,0,0,.54,2.5,2.64,2.64,0,0,0,.66.25,10.77,10.77,0,0,0,5.23-.19,3.81,3.81,0,0,0,.66-.27,1.6,1.6,0,0,0,.54-2.53,3.86,3.86,0,0,0-.48-.51,2.33,2.33,0,0,1-.63-1.15,18.19,18.19,0,0,1-.46-4.29,2.43,2.43,0,0,1,.1-.6.88.88,0,0,1,1.19-.61,1.76,1.76,0,0,1,1.1.95,8.29,8.29,0,0,1,.31.83l.93,3.31a16.56,16.56,0,0,0,1,2.81,4.14,4.14,0,0,0,5.82,1.41,2.59,2.59,0,0,0,1.08-1.36,1.44,1.44,0,0,0-.56-1.79c-.11-.09-.24-.16-.36-.25a2,2,0,0,1-.82-1.21c-.06-.23-.1-.46-.15-.69a20.37,20.37,0,0,0-.76-3.08,4.86,4.86,0,0,0-2.14-2.6c-1-.59-1.08-1-.29-1.85a4.25,4.25,0,0,0,1.07-1.9,8.42,8.42,0,0,0-.17-5,5.21,5.21,0,0,0-5.51-3.39,13.84,13.84,0,0,0-1.57.24A20.27,20.27,0,0,1,195,258.5Zm-21.46,15a21.35,21.35,0,0,0-.73-6,13.17,13.17,0,0,0-1.63-3.7,6.85,6.85,0,0,0-6.86-3.24c-1.61.14-3.21.4-4.83.46-.82,0-1.64.11-2.46.19a6.05,6.05,0,0,0-1,.17,1.33,1.33,0,0,0-1.06,1.16,1.46,1.46,0,0,0,.64,1.68,2.43,2.43,0,0,1,1.16,1.89,11,11,0,0,1,.12,1.14c.08,1.15.14,2.29.23,3.44.15,2,.3,3.93.33,5.9,0,.41.05.82.06,1.23,0,.74.06,1.47,0,2.21a2.18,2.18,0,0,1-.89,1.84l-.26.23a1.6,1.6,0,0,0-.33,1.65,1.49,1.49,0,0,0,1.17,1.09,2,2,0,0,0,.69,0c1-.15,2.1-.33,3.15-.4,1.59-.11,3.18-.15,4.77-.2a6.91,6.91,0,0,0,5.83-3.28,10.32,10.32,0,0,0,1.36-3.05A16.57,16.57,0,0,0,173.49,273.46Zm128.27-8.25c0-.44,0-.88,0-1.32a1,1,0,0,1,.58-1,1,1,0,0,1,1.19.35c.19.18.37.37.55.57l3.79,4.19,3.91,4.32a4,4,0,0,0,.7.66.78.78,0,0,0,1.2-.29,1.56,1.56,0,0,0,.15-.41,8.82,8.82,0,0,0,.25-2.71c-.12-1.35-.2-2.7-.29-4.05-.08-1.08-.14-2.17-.24-3.25a71.59,71.59,0,0,1-.34-7.32,3.13,3.13,0,0,1,.92-2.39,1.85,1.85,0,0,0,.4-2,1.41,1.41,0,0,0-1.12-1,8.68,8.68,0,0,0-4,.2,1.55,1.55,0,0,0-.4.17,1.45,1.45,0,0,0-.77,1.12,1.87,1.87,0,0,0,.78,2,2.24,2.24,0,0,1,.95,1.44,13.56,13.56,0,0,1,.36,3.59,2.59,2.59,0,0,1-.1.61.71.71,0,0,1-1.13.38,4.1,4.1,0,0,1-.65-.6l-5.83-6.27c-.2-.21-.4-.43-.62-.62a4.86,4.86,0,0,0-4.45-1.1,3.43,3.43,0,0,0-1.28.57,1.77,1.77,0,0,0-.74,1,1.63,1.63,0,0,0,.67,1.93,4,4,0,0,1,1.59,2.76c.24,1.51.44,3,.59,4.54.09,1,.12,1.94.2,2.91.14,1.62.1,3.23.09,4.85a2.75,2.75,0,0,1-.56,1.64,5.5,5.5,0,0,0-.45.66,1.81,1.81,0,0,0,.91,2.64l.42.15a4.93,4.93,0,0,0,4-.5,1.79,1.79,0,0,0,.5-2.79,5.93,5.93,0,0,0-.44-.43,2.9,2.9,0,0,1-.92-1.68A16.31,16.31,0,0,1,301.76,265.21ZM96.48,285.82c0-.35-.08-1.06-.13-1.76s-.09-1.47-.14-2.2c-.09-1.27-.2-2.53-.29-3.79s-.2-2.64-.27-4c0-.95-.06-1.89,0-2.83a2.91,2.91,0,0,1,.91-2.22,1.81,1.81,0,0,0,.28-.34,1.85,1.85,0,0,0-1.28-2.83,9.91,9.91,0,0,0-3.6.21,1.83,1.83,0,0,0-1.13,2.66,2.35,2.35,0,0,0,.68.69,2.59,2.59,0,0,1,1,1.72c.13.87.22,1.75.31,2.63a3.13,3.13,0,0,1-.09,1.14.74.74,0,0,1-1.21.49,4.37,4.37,0,0,1-1-.88l-6.07-6.66a7.25,7.25,0,0,0-.62-.62,1.93,1.93,0,0,0-1.29-.5c-.56,0-1.12,0-1.68,0a4.92,4.92,0,0,0-2,.59,1.67,1.67,0,0,0-.35,2.8,1.73,1.73,0,0,0,.21.17A4,4,0,0,1,80.16,273a60.56,60.56,0,0,1,.83,7.71c0,.83.08,1.65.1,2.48,0,.67,0,1.35,0,2a3.26,3.26,0,0,1-.72,2,2.62,2.62,0,0,0-.41.68,1.75,1.75,0,0,0,.68,2.23,3.13,3.13,0,0,0,.72.33,5.24,5.24,0,0,0,3.79-.35,1.78,1.78,0,0,0,.3-.17,1.74,1.74,0,0,0,.48-2.67,3.37,3.37,0,0,0-.48-.52,3.19,3.19,0,0,1-1-2.11c0-.41-.11-.81-.15-1.22a13,13,0,0,1-.16-2.64,5.09,5.09,0,0,1,.14-.87.79.79,0,0,1,1.3-.5,4,4,0,0,1,.55.45c.21.2.41.42.61.64l7.4,8.19a4,4,0,0,0,.76.73.8.8,0,0,0,1.2-.3,2.39,2.39,0,0,0,.19-.59A10.48,10.48,0,0,0,96.48,285.82Zm129.64-30c-.17,0-.4,0-.64,0a5.6,5.6,0,0,0-1.72.35,1.72,1.72,0,0,0-.64,2.93c.16.17.34.32.51.49a2.89,2.89,0,0,1,.83,1.52,28.27,28.27,0,0,1,.35,3.16,1.41,1.41,0,0,1-.12.78.83.83,0,0,1-1.31.36,5.18,5.18,0,0,1-.63-.61l-6.39-7c-.14-.16-.27-.31-.42-.46a1.89,1.89,0,0,0-1.08-.54,7,7,0,0,0-2.54,0,4.48,4.48,0,0,0-1.72.67,1.59,1.59,0,0,0-.14,2.63c.13.12.27.22.41.33a3.42,3.42,0,0,1,1,1.5,7.26,7.26,0,0,1,.33,1.19c.26,1.51.45,3,.56,4.55.09,1.15.14,2.3.24,3.44.11,1.32.11,2.64.11,4a3.25,3.25,0,0,1-.63,1.9,7.42,7.42,0,0,0-.46.64,1.77,1.77,0,0,0,.55,2.41,2.76,2.76,0,0,0,.72.33,5.89,5.89,0,0,0,3.64-.21,3,3,0,0,0,.75-.45,1.72,1.72,0,0,0,.41-2.23,2.73,2.73,0,0,0-.49-.63,4.23,4.23,0,0,1-1.25-2.65c-.16-1.11-.15-2.23-.28-3.34a2.39,2.39,0,0,1,.11-1,.93.93,0,0,1,1.53-.52,5.54,5.54,0,0,1,.68.69q4,4.38,7.93,8.78a6,6,0,0,0,.43.44.83.83,0,0,0,1.41-.36,3.34,3.34,0,0,0,.23-1.12,36.63,36.63,0,0,0-.06-4.06c-.09-1.35-.2-2.7-.3-4.05-.07-1-.15-2-.22-3-.1-1.35-.19-2.7-.27-4.06q0-.62,0-1.23a3.79,3.79,0,0,1,.94-2.42,3.73,3.73,0,0,0,.41-.57,1.71,1.71,0,0,0-1.18-2.53A7.75,7.75,0,0,0,226.12,255.83Zm51.32,6.82c0,.47,0,1,0,1.42a13.72,13.72,0,0,0,1,4.73,12.36,12.36,0,0,0,2.83,4.42,6.93,6.93,0,0,0,5.61,2.07,7.33,7.33,0,0,0,5.25-2.75,12.18,12.18,0,0,0,2.39-4.68,15.05,15.05,0,0,0,.43-4.63,15.77,15.77,0,0,0-2.85-8.41,8.65,8.65,0,0,0-1.58-1.78,7,7,0,0,0-6.5-1.6,7.47,7.47,0,0,0-4.15,2.83,11.64,11.64,0,0,0-2.2,5A15.09,15.09,0,0,0,277.44,262.65ZM130.67,277.78h0c0,.24,0,.47,0,.71a6,6,0,0,1-.64,2.37,3.28,3.28,0,0,1-3.82,1.62,3.48,3.48,0,0,1-1.82-1.33,5.51,5.51,0,0,1-1-2.6c-.09-.7-.15-1.4-.2-2.11-.1-1.29-.21-2.58-.27-3.87s-.07-2.59-.1-3.88a1.8,1.8,0,0,1,.61-1.42l.26-.23a1.75,1.75,0,0,0-.78-2.94l-.69-.14a9.86,9.86,0,0,0-3.34,0,7.82,7.82,0,0,0-2.37.66,1.65,1.65,0,0,0-.7,2.52,5.57,5.57,0,0,0,.6.76,3.37,3.37,0,0,1,.87,2c.16,1.7.29,3.4.36,5.1s.17,3.3.39,4.93a12.76,12.76,0,0,0,.67,2.92,6.5,6.5,0,0,0,3.14,3.67,8.2,8.2,0,0,0,6.5.63,7.19,7.19,0,0,0,5.33-7.08c0-2.27-.15-4.53-.29-6.79-.07-1.21-.18-2.41-.27-3.61,0-.5,0-1,0-1.5a3.25,3.25,0,0,1,.89-2.42,2,2,0,0,0,.23-.27,1.36,1.36,0,0,0-.21-1.9,1.89,1.89,0,0,0-.45-.28,2.59,2.59,0,0,0-.67-.2,7.86,7.86,0,0,0-4,.4,1.56,1.56,0,0,0-.29,2.79,2.56,2.56,0,0,1,1.3,2.09c.07.64.12,1.28.18,1.93.16,1.76.32,3.51.47,5.27C130.54,276.31,130.6,277.05,130.67,277.78Zm209.83-6.53a10.08,10.08,0,0,0,2.19-.26,7.23,7.23,0,0,0,5.36-5.73,11,11,0,0,0-.05-4.12,6.39,6.39,0,0,0-4-4.95c-.48-.2-1-.38-1.48-.57s-.89-.31-1.32-.5a4.67,4.67,0,0,1-.84-.48,2.36,2.36,0,0,1-.94-1.54,1.74,1.74,0,0,1,1.78-2,3.29,3.29,0,0,1,2.1,1c.46.46.88,1,1.32,1.43a3.51,3.51,0,0,0,.78.71.87.87,0,0,0,1.35-.31,2.52,2.52,0,0,0,.22-.47,3.11,3.11,0,0,0,.1-1.57,8.18,8.18,0,0,0-1.63-3.77,1.24,1.24,0,0,0-1.6-.54,2.25,2.25,0,0,1-1.47,0c-.43-.12-.85-.24-1.29-.32a5.52,5.52,0,0,0-2.36,0,6,6,0,0,0-4.19,3.36,9.25,9.25,0,0,0-.94,4.63,8.17,8.17,0,0,0,1.1,3.77,8.82,8.82,0,0,0,4.11,3.62c.51.23,1,.41,1.55.64a7.59,7.59,0,0,1,1.09.58,1.78,1.78,0,0,1,.82,1.75,1.83,1.83,0,0,1-1.28,1.54,3,3,0,0,1-1.83.06,4.13,4.13,0,0,1-2.5-1.84c-.37-.6-.71-1.22-1.07-1.83a6.27,6.27,0,0,0-.5-.73A.65.65,0,0,0,334,263a1.87,1.87,0,0,0-.13.87,12.05,12.05,0,0,0,1.09,4.87,3.45,3.45,0,0,0,2.19,1.93A12.1,12.1,0,0,0,340.5,271.25Zm-95.91,7.07c.49,0,1,0,1.49,0a15.45,15.45,0,0,0,2.61-.43,2.23,2.23,0,0,0,1.42-1,1.44,1.44,0,0,0-.5-2.17,2.79,2.79,0,0,1-1.17-1.16q-.19-.4-.36-.81c-.77-1.91-1.55-3.81-2.32-5.72-1.23-3-2.49-6-4-8.94a13.22,13.22,0,0,0-1-1.66,5.11,5.11,0,0,0-1.39-1.35,2.1,2.1,0,0,0-1.07-.36,2.36,2.36,0,0,0-2.4,1.7,4.37,4.37,0,0,0-.24,2.09,11.61,11.61,0,0,1-.15,4c-.68,3.71-1.67,7.34-2.55,11a5.06,5.06,0,0,1-1.72,2.91l-.13.12a1.4,1.4,0,0,0,.7,2.44,8.33,8.33,0,0,0,2.9.14,4.3,4.3,0,0,0,2-.73,1.38,1.38,0,0,0,.09-2.26c-.16-.13-.34-.24-.51-.36a1.22,1.22,0,0,1-.42-.55,1.61,1.61,0,0,1,1-2.12,3.43,3.43,0,0,1,1-.14A8.38,8.38,0,0,0,239,273a6.84,6.84,0,0,1,2,.06,1.38,1.38,0,0,1,.84,2.29,6.14,6.14,0,0,1-.43.45,1.47,1.47,0,0,0,.59,2.38,2.54,2.54,0,0,0,.86.18Zm-95.31,7.24a14.84,14.84,0,0,0,2.9-.18,5.5,5.5,0,0,0,1.78-.5,2,2,0,0,0,1-1.06,1.28,1.28,0,0,0-.56-1.8l-.08,0a3.34,3.34,0,0,1-1.29-1.42c-.18-.37-.34-.75-.49-1.13-.91-2.24-1.81-4.48-2.73-6.71-1-2.4-2-4.77-3.19-7.08a13.2,13.2,0,0,0-1.35-2.18,5.41,5.41,0,0,0-1.15-1.09,2.2,2.2,0,0,0-3.12.56,3,3,0,0,0-.63,1.8,8.28,8.28,0,0,0,.06,1.32,8,8,0,0,1,0,2.29c-.12.7-.22,1.4-.34,2.09-.67,3.68-1.65,7.29-2.58,10.91a4.16,4.16,0,0,1-1,1.78c-.2.21-.42.41-.64.6a1.5,1.5,0,0,0-.46,1.61,1.33,1.33,0,0,0,1.14,1,7.52,7.52,0,0,0,2.63.13,4.6,4.6,0,0,0,2.15-.76,1.37,1.37,0,0,0,.12-2.26c-.15-.13-.33-.24-.5-.36a1.25,1.25,0,0,1-.54-1.14,1.39,1.39,0,0,1,1.26-1.54,12.18,12.18,0,0,1,3.51-.24,3.15,3.15,0,0,1,.86.19,1.37,1.37,0,0,1,.48,2.25l-.25.24a1.55,1.55,0,0,0,.78,2.67,4.16,4.16,0,0,0,.79.09ZM329,271.77h.69l1,0c.8,0,1-.14,1.31-.91.15-.41.28-.84.39-1.26a13.4,13.4,0,0,0,.47-3.93,3.35,3.35,0,0,0-.27-1.29.86.86,0,0,0-.77-.63.79.79,0,0,0-.78.61c-.13.32-.24.66-.34,1a7.23,7.23,0,0,1-.54,1.4,3.37,3.37,0,0,1-2,1.71,6.7,6.7,0,0,1-2.71.25,1.38,1.38,0,0,1-1.35-1.19,18.84,18.84,0,0,1-.4-4.74,2.14,2.14,0,0,1,.07-.43,1.07,1.07,0,0,1,1.47-.71,1.73,1.73,0,0,1,1,1,9,9,0,0,1,.29.92,5.91,5.91,0,0,0,.28.84.52.52,0,0,0,.89.06,1.58,1.58,0,0,0,.29-.63,10.3,10.3,0,0,0,.34-2.27,20.73,20.73,0,0,0-.22-3.43,11.7,11.7,0,0,0-.55-2.41,1.66,1.66,0,0,0-.43-.76.61.61,0,0,0-.87,0,.91.91,0,0,0-.26.55c0,.26,0,.53-.06.79s-.08.82-.14,1.23a1.05,1.05,0,0,1-.53.78,1.43,1.43,0,0,1-2.2-1c-.08-.59-.15-1.17-.18-1.76,0-.76-.05-1.53,0-2.29a1.39,1.39,0,0,1,1.37-1.46,11.52,11.52,0,0,1,1.66-.16,3.31,3.31,0,0,1,3.08,1.72,7.58,7.58,0,0,0,.4.68.75.75,0,0,0,1.38-.18,2.9,2.9,0,0,0,.19-.77,7.5,7.5,0,0,0-.89-4.35,4.08,4.08,0,0,0-.28-.44,1,1,0,0,0-1.17-.41,4,4,0,0,0-.58.21,6.46,6.46,0,0,1-1.62.43c-1.34.14-2.69.26-4,.37l-3,.22c-.59.05-1.18.1-1.76.17-.32,0-.64.1-1,.16a.92.92,0,0,0-.66.53,2.44,2.44,0,0,0-.09,1.39,1.07,1.07,0,0,0,.63.7,2.37,2.37,0,0,1,1.12,1.53,6.6,6.6,0,0,1,.17.77c.1.58.2,1.16.28,1.74a59,59,0,0,1,.62,6.51c0,.38,0,.76.07,1.14a32.18,32.18,0,0,1,0,4.5,2.63,2.63,0,0,1-.88,1.87,1.42,1.42,0,0,0-.24.25,1.24,1.24,0,0,0-.12,1.41,1.14,1.14,0,0,0,1.07.66c.15,0,.3,0,.44,0l1.76-.12c1.06-.08,2.12-.15,3.17-.24A51.07,51.07,0,0,1,329,271.77ZM74,291.06c.64,0,1.29,0,1.94,0a1.17,1.17,0,0,0,1.26-.89c0-.14.1-.27.14-.41.16-.6.33-1.19.46-1.8a12,12,0,0,0,.25-3.16,2.76,2.76,0,0,0-.34-1.26A.81.81,0,0,0,77,283a.76.76,0,0,0-.65.53c-.12.26-.2.55-.3.82-.15.42-.28.84-.46,1.24a4.33,4.33,0,0,1-4.91,2.42,1.52,1.52,0,0,1-1.35-1.3,19,19,0,0,1-.45-4.38,4.21,4.21,0,0,1,0-.62,1.08,1.08,0,0,1,1.64-.75,1.93,1.93,0,0,1,.91,1c.12.33.2.68.3,1a2,2,0,0,0,.24.66.55.55,0,0,0,.9,0,1.44,1.44,0,0,0,.2-.39,6.63,6.63,0,0,0,.18-.77,16.21,16.21,0,0,0-.53-7.42,4.07,4.07,0,0,0-.22-.58,1.44,1.44,0,0,0-.27-.34.52.52,0,0,0-.78,0,1.27,1.27,0,0,0-.24.46,8.74,8.74,0,0,0-.14.87c-.06.41-.1.82-.16,1.23a1.06,1.06,0,0,1-.52.78,1.38,1.38,0,0,1-2.18-1,20.84,20.84,0,0,1-.21-3.87,1.56,1.56,0,0,1,1.29-1.67,4.26,4.26,0,0,1,4.73,1.51,8.75,8.75,0,0,0,.58.78.77.77,0,0,0,1.35-.24,1.73,1.73,0,0,0,.15-.68c0-.53,0-1.06,0-1.59a7.28,7.28,0,0,0-1-3c-.43-.73-.78-.85-1.62-.57l-.25.08a13.31,13.31,0,0,1-2.14.51c-.82.14-1.65.13-2.47.21-1.08.11-2.16.19-3.25.28-.91.08-1.82.14-2.72.23a5,5,0,0,0-.87.16,1,1,0,0,0-.57.39,1.51,1.51,0,0,0,.35,2.1,2.82,2.82,0,0,1,1.31,1.9,1.36,1.36,0,0,1,0,.17,41.31,41.31,0,0,1,.75,5.42c.09,1.38.19,2.76.28,4.14a32.1,32.1,0,0,1,0,3.8,9.79,9.79,0,0,1-.19,1.4,2.19,2.19,0,0,1-.59,1.16,2.55,2.55,0,0,0-.41.46,1.37,1.37,0,0,0-.08,1.42,1.13,1.13,0,0,0,1.09.63,4.16,4.16,0,0,0,.61,0,14.9,14.9,0,0,1,1.76-.14c1-.06,2-.15,3-.23A41.38,41.38,0,0,1,74,291.06Zm112.51-8.6c.24,0,.57,0,.89,0l1.59.09a1.13,1.13,0,0,0,1.22-.82c.17-.5.33-1,.47-1.52a13.33,13.33,0,0,0,.44-3.93,2.64,2.64,0,0,0-.53-1.56.62.62,0,0,0-1.1,0,5.23,5.23,0,0,0-.41,1c-.19.52-.33,1.07-.56,1.58a3.35,3.35,0,0,1-2.44,2,7.33,7.33,0,0,1-2.19.18,1.47,1.47,0,0,1-1.61-1.42c-.13-.73-.24-1.46-.31-2.19a12.74,12.74,0,0,1,0-2.47,1.09,1.09,0,0,1,1.72-.91,1.6,1.6,0,0,1,.75.83c.12.3.2.62.29.93a3.31,3.31,0,0,0,.3.92.51.51,0,0,0,.88.05,1.6,1.6,0,0,0,.31-.72,14.42,14.42,0,0,0,.32-2.45,17,17,0,0,0-.76-5.48,2.92,2.92,0,0,0-.23-.58.65.65,0,0,0-.62-.42.7.7,0,0,0-.64.53,2.54,2.54,0,0,0-.12.87,6,6,0,0,1-.18,1.4,1.12,1.12,0,0,1-.74.81,1.89,1.89,0,0,1-1.13,0,1,1,0,0,1-.69-.63,2.68,2.68,0,0,1-.17-.69c-.06-.49-.12-1-.14-1.49,0-.79-.06-1.59,0-2.38a1.36,1.36,0,0,1,1.17-1.45,8.65,8.65,0,0,1,1.13-.21,3.5,3.5,0,0,1,3.44,1.34c.18.23.35.47.53.71a3.22,3.22,0,0,0,.32.41.77.77,0,0,0,1.31-.22,2,2,0,0,0,.18-.68,7.79,7.79,0,0,0-.88-4.44A2.85,2.85,0,0,0,188,259a.9.9,0,0,0-1-.34,3.38,3.38,0,0,0-.42.13,13.42,13.42,0,0,1-3,.64c-.85.09-1.7.12-2.55.18-1.38.1-2.76.21-4.13.33-.56.05-1.12.11-1.67.21a1.15,1.15,0,0,0-1,.76,2.22,2.22,0,0,0,0,1.3c.1.35.39.5.67.66a2.19,2.19,0,0,1,1.07,1.45q.1.44.18.87.51,2.87.75,5.77c.18,2.38.29,4.76.27,7.15A3.45,3.45,0,0,1,176,281a1.06,1.06,0,0,0-.32,1.21,1.1,1.1,0,0,0,1.15.91c.82,0,1.64,0,2.46-.09s1.82-.2,2.73-.27C183.47,282.65,185,282.56,186.55,282.46ZM265.62,260a9.24,9.24,0,0,0-1.13-4.49,5.21,5.21,0,0,0-.48-.74,1,1,0,0,0-.93-.41,3.11,3.11,0,0,0-.44.06,2.15,2.15,0,0,1-1.45-.22l-.79-.39a5.7,5.7,0,0,0-3.88-.33,6.79,6.79,0,0,0-3,1.66,11.85,11.85,0,0,0-3.85,8.18,19.16,19.16,0,0,0,.19,4.14,14.72,14.72,0,0,0,2.32,6,8.46,8.46,0,0,0,5.54,3.78,5.25,5.25,0,0,0,2.86-.17,8.12,8.12,0,0,0,1.82-.9c.72-.46,1.41-.95,2.13-1.42a2.49,2.49,0,0,0,1-1.31,7.35,7.35,0,0,0,.32-3.48,1.86,1.86,0,0,0-.15-.51c-.29-.68-.69-.75-1.17-.19a7.59,7.59,0,0,1-1,1.08,4.08,4.08,0,0,1-5.78-.47,6.48,6.48,0,0,1-.73-1,13.38,13.38,0,0,1-1.83-7.44,4.89,4.89,0,0,1,.53-2.21,2.49,2.49,0,0,1,3.36-1.2,4.49,4.49,0,0,1,2.11,1.81c.34.55.63,1.14.94,1.71a10.18,10.18,0,0,0,.5.92,1.37,1.37,0,0,0,2.31.15,2.24,2.24,0,0,0,.61-1.34C265.59,260.92,265.6,260.48,265.62,260ZM98.73,275.82c0,.39,0,.77,0,1.15a18.15,18.15,0,0,0,1.15,5.24,11.73,11.73,0,0,0,3,4.52,7.48,7.48,0,0,0,2.35,1.54,6.34,6.34,0,0,0,6.15-.53l.36-.25a9.85,9.85,0,0,1,1.73-1.05,1.72,1.72,0,0,0,.85-.87,7.32,7.32,0,0,0,.62-1.83,7.46,7.46,0,0,0,.09-2.11,1.65,1.65,0,0,0-.38-1,.55.55,0,0,0-.85-.08c-.15.14-.28.31-.42.46a8.75,8.75,0,0,1-.67.69,4,4,0,0,1-5.9-.41,8.48,8.48,0,0,1-.63-.85,13.27,13.27,0,0,1-1.91-7.42,5.16,5.16,0,0,1,.63-2.45,2.34,2.34,0,0,1,2.84-1.21,3.58,3.58,0,0,1,1.13.5,4.75,4.75,0,0,1,1.6,1.73c.25.47.47.95.72,1.42a8.25,8.25,0,0,0,.58,1,1.36,1.36,0,0,0,2.35,0,2.61,2.61,0,0,0,.56-1.47,12.09,12.09,0,0,0-.06-2.55,9.1,9.1,0,0,0-1.19-3.39,1.34,1.34,0,0,0-1.46-.76,3.41,3.41,0,0,1-2.11-.44,6,6,0,0,0-6.28.44,8.69,8.69,0,0,0-2,1.78,12,12,0,0,0-2.41,4.86A18.49,18.49,0,0,0,98.73,275.82Zm173.2-23.41a9.6,9.6,0,0,0-4.28.93,4.12,4.12,0,0,0-.62.33,1.4,1.4,0,0,0-.37,2.14,7.43,7.43,0,0,0,.53.59,4.31,4.31,0,0,1,1.08,2,10.66,10.66,0,0,1,.19,1.13c.29,2.22.47,4.44.56,6.68.05,1.38.17,2.76.26,4.14a4.92,4.92,0,0,1-.67,2.88c-.12.2-.26.39-.37.6a1.48,1.48,0,0,0,.83,2.22,3,3,0,0,0,.51.15,9.59,9.59,0,0,0,5.86-.67,3.6,3.6,0,0,0,.55-.29,1.6,1.6,0,0,0,.3-2.57,4.49,4.49,0,0,0-.46-.41,2.76,2.76,0,0,1-.92-1.57,5.38,5.38,0,0,1-.12-.7c-.2-1.93-.41-3.86-.57-5.79-.13-1.47-.2-2.94-.29-4.41a13,13,0,0,1,.06-2.64,2.55,2.55,0,0,1,.67-1.5l.35-.4a1.43,1.43,0,0,0,.29-.82,1.64,1.64,0,0,0-1.19-1.75A6.94,6.94,0,0,0,271.93,252.41Z" transform="translate(-7.09 -1.69)"/><path class="cls-1" d="M355,41.45a2.17,2.17,0,0,1-1.24.39c-1.32.07-2.65.13-4,.21l-3.87.27-.35,0c-1.47.08-2.94.14-4.41.23s-2.76.18-4.14.28l-.35,0c-1.53.07-3.06.13-4.59.22s-3,.19-4.49.28l-.26,0c-1.62.08-3.24.14-4.85.23-1.38.07-2.76.18-4.14.28l-.44,0-4.23.22-4,.29c-1.2.08-2.4.15-3.61.21-.82,0-1.64.07-2.47.13-1.46.12-2.93.16-4.4.24l-4.32.28c-.12,0-.23,0-.35,0-1.44.08-2.88.14-4.32.23s-2.82.18-4.23.27c-.12,0-.23,0-.35,0-1.56.08-3.12.14-4.67.23s-2.82.19-4.23.28l-.35,0-4.5.22c-1.32.08-2.64.18-4,.28l-.35,0-4.5.22c-1.41.08-2.82.19-4.23.28l-.35,0c-1.56.07-3.12.13-4.67.22-1.38.08-2.76.19-4.14.29-1,.07-2,.08-3,.17-1.43.13-2.88.16-4.32.24l-4.31.29-.35,0c-1.53.08-3.06.14-4.59.23s-2.82.18-4.23.28l-.44,0c-1.5.07-3,.13-4.49.22-1.32.08-2.64.19-4,.28l-.44,0-4.49.22c-1.44.08-2.88.19-4.32.28l-.35,0c-1.62.08-3.24.14-4.85.23-1.38.08-2.76.19-4.14.29-1,.07-1.94.07-2.91.16-1.4.14-2.82.16-4.23.25L190,51.5c-.11,0-.23,0-.35,0-1.58.08-3.17.14-4.76.23-1.41.08-2.82.19-4.23.28l-.35,0c-1.47.08-2.94.14-4.41.23-1.32.07-2.64.18-4,.27l-.35,0c-1.56.07-3.12.14-4.67.23s-2.82.18-4.23.28l-.35,0c-1.5.08-3,.14-4.5.23-1.32.08-2.64.18-4,.27l-.35,0c-1.5.08-3,.14-4.5.23l-4.14.27c-.15,0-.29,0-.44,0-1.56.08-3.12.14-4.67.23-1.38.08-2.76.19-4.14.29-1,.07-1.94.07-2.91.16-1.44.13-2.88.16-4.32.24l-4.31.28-.36,0c-1.58.08-3.17.14-4.76.23-1.41.08-2.82.19-4.23.28-.14,0-.29,0-.44,0-1.47.08-2.94.14-4.4.23s-2.76.19-4.14.28c-1.15.08-2.29.15-3.44.21-.85,0-1.7.08-2.55.14-1.59.11-3.18.15-4.77.24s-3,.19-4.49.28c-.14,0-.29,0-.44,0-1.47.08-2.94.14-4.41.23s-2.64.18-4,.28c-1,.08-2.06.07-3.08.18s-2.23.16-3.35.21c-.85,0-1.7.08-2.56.14-1.52.11-3,.15-4.58.24s-2.88.19-4.32.28l-.44,0c-1.47.07-2.94.11-4.4.23-1.12.09-2.24.13-3.35.21a3.23,3.23,0,0,1-.88,0,.76.76,0,0,1-.61-.57,3,3,0,0,1-.1-.52c0-.2,0-.41,0-.62V45a9.47,9.47,0,0,1,.16-1.84c0-.15,0-.29.08-.44a2.54,2.54,0,0,1,2.18-2,10.92,10.92,0,0,1,1.4-.17c1.68-.09,3.36-.14,5-.23S66,40.14,67.48,40l.27,0c1.55-.08,3.11-.14,4.67-.23s3.11-.19,4.67-.28l.26,0c1.71-.08,3.41-.14,5.12-.23,1.5-.08,3-.18,4.49-.27l.27,0c1.67-.07,3.35-.14,5-.23s3.17-.18,4.76-.27l.79-.05c1.12,0,2.24-.08,3.36-.14,1.61-.09,3.23-.11,4.85-.21,1.23-.07,2.47-.07,3.7-.14,2.18-.13,4.36-.16,6.53-.25s4.06-.19,6.09-.28l.26,0c2-.07,4.06-.14,6.09-.23,1.76-.07,3.53-.18,5.29-.27l.35,0c2-.07,4.06-.14,6.09-.23,1.88-.08,3.76-.19,5.64-.28l.27,0c2-.07,4.05-.14,6.08-.23,1.83-.08,3.65-.18,5.47-.27l.62,0c1.29,0,2.58-.08,3.88-.16,1.94-.12,3.88-.15,5.82-.24,1.68-.08,3.35-.19,5-.28h.18l5.38-.23c1.73-.08,3.47-.19,5.2-.28l1,0c1.09,0,2.18-.07,3.27-.13,2.08-.12,4.17-.16,6.26-.25,1.85-.08,3.7-.18,5.55-.28l.89,0c1.11,0,2.23-.07,3.35-.14,2-.13,3.94-.16,5.91-.25s3.76-.18,5.64-.28h.26c2-.08,4-.15,6-.24s3.71-.18,5.56-.27l.88-.05c1.15,0,2.29-.07,3.44-.14,2-.13,3.94-.16,5.91-.24l5.82-.28,1.06-.05c1.18,0,2.35-.06,3.53-.13,2.14-.13,4.29-.16,6.44-.25,2-.08,4-.19,6-.28l.26,0c2.09-.08,4.18-.14,6.26-.23,1.89-.08,3.77-.19,5.65-.28l.26,0c1.91-.08,3.82-.14,5.74-.23,1.7-.08,3.4-.19,5.11-.28l.26,0c1.82-.08,3.65-.14,5.47-.23s3.47-.18,5.2-.28c.21,0,.41,0,.62,0,1.32-.05,2.65-.07,4-.17s2.76-.07,4.14-.18c1.21-.09,2.41-.08,3.62-.16,2-.13,3.94-.15,5.91-.24,1.82-.08,3.64-.18,5.47-.28l.79,0c1.21,0,2.41-.08,3.62-.15,2.23-.12,4.47-.15,6.7-.24,1.88-.07,3.76-.18,5.65-.28l.26,0c1.88-.07,3.76-.14,5.65-.23s3.58-.18,5.37-.28l.27,0,7.14-.25a.85.85,0,0,1,.89.44Z" transform="translate(-7.09 -1.69)"/><path class="cls-1" d="M355,16.36a2.2,2.2,0,0,1-.84.24l-3.61.17-6.62.3h-.18c-2,.07-4.06.14-6.08.23s-3.88.18-5.82.28l-.89,0c-1.11,0-2.23.07-3.35.14-2,.12-4.06.16-6.09.24l-5.64.28-.26,0-6,.23-5.74.28-.26,0-6,.23-5.73.28-.36,0c-1.55,0-3.11.09-4.67.19-1.12.07-2.24.07-3.35.14-2,.13-4,.16-6,.25s-3.82.18-5.73.28l-.89,0c-1.11,0-2.23.07-3.35.14-2,.13-4.06.16-6.09.24L255.8,21h-.26c-2,.08-4.06.15-6.09.24-1.88.08-3.76.18-5.65.28l-.26,0c-1.53.06-3.06.14-4.59.19-1.11,0-2.23.07-3.35.14-2,.13-4.06.16-6.09.25s-3.88.19-5.82.28l-.26,0c-2,.08-4,.14-6,.23s-3.76.18-5.64.28l-.27,0c-2.06.07-4.12.14-6.18.23-1.85.08-3.7.18-5.55.28l-1,0c-1.12,0-2.24.07-3.35.14-2,.12-4,.16-6,.24l-5.73.29h-.27l-6.09.23-5.64.29h-.26l-6,.23-5.73.28-.88.05c-1.18,0-2.35.07-3.53.14-1.55.1-3.11.11-4.67.21-1.12.07-2.24.07-3.35.14-2,.13-3.95.16-5.92.24l-5.73.28-1,.05c-1.12,0-2.23.07-3.35.14-2,.12-4,.15-6,.24s-3.82.19-5.73.28l-.27,0c-2,.08-4,.14-6,.23s-3.82.19-5.73.28l-1,.05c-1.12,0-2.23.07-3.35.14-2,.12-4,.15-6,.24s-3.76.18-5.64.28l-.27,0c-2,.07-4.06.14-6.08.23s-3.88.19-5.82.29l-.89,0c-1.09,0-2.17.06-3.26.13-2,.12-3.94.15-5.91.24-1.77.08-3.53.19-5.29.29l-.27,0c-1.79.07-3.58.14-5.38.23-.91,0-1.82.11-2.73.16a6.94,6.94,0,0,1-.79,0,.82.82,0,0,1-.87-.82,3.08,3.08,0,0,1,0-.53c0-3.18,0-6.36,0-9.54a7.46,7.46,0,0,1,3.16-6.12A3.43,3.43,0,0,1,59,12.11c.21,0,.41,0,.62,0,1.76,0,3.53-.06,5.29-.14,2.74-.13,5.48-.1,8.21-.26,2.09-.13,4.18-.06,6.27-.27h.26c2.62-.08,5.24-.14,7.86-.23,2.2-.08,4.41-.19,6.61-.28.24,0,.47,0,.71,0,1.56,0,3.12-.08,4.68-.15,2.91-.13,5.82-.15,8.74-.25,2.09-.07,4.17-.19,6.26-.28l.26,0,4.86-.19c1.44-.05,2.88-.07,4.32-.14,2.59-.14,5.18-.16,7.77-.25,2.26-.08,4.53-.19,6.79-.29l.8,0c1.5,0,3-.07,4.5-.14,2.79-.13,5.59-.15,8.38-.25,2.15-.07,4.3-.18,6.44-.27l.36,0c2.55-.08,5.12-.15,7.67-.24,2.27-.08,4.53-.18,6.8-.28l.35,0c2.65-.07,5.3-.14,7.95-.23,2.26-.08,4.52-.19,6.79-.28h.17l6.62-.23L202.49,7,204,7c1.47,0,2.94-.06,4.41-.13,2.56-.14,5.12-.16,7.68-.25,2.3-.08,4.59-.19,6.88-.29h.27c2.53-.08,5.06-.14,7.59-.23,2.06-.08,4.12-.19,6.17-.28l.36,0,7.41-.22L252,5.23l1.14,0c1.3,0,2.59-.06,3.89-.13,2.55-.12,5.12-.16,7.67-.25,2.33-.08,4.65-.19,7-.28l1.06,0c1.36,0,2.71-.07,4.06-.14,2.5-.13,5-.16,7.5-.25,2.3-.08,4.59-.18,6.89-.28l.35,0c2.82-.07,5.65-.13,8.47-.23,2.18-.07,4.36-.18,6.53-.28l1.15,0c1.35,0,2.71-.07,4.06-.14,2.5-.13,5-.15,7.5-.24l7.06-.29,1,0c1.5,0,3-.06,4.5-.15,2.32-.13,4.65-.13,7-.25,1.68-.08,3.35-.18,5-.17a20.15,20.15,0,0,1,3,.19,9.45,9.45,0,0,1,7.88,6.38c.15.41.23.85.34,1.27Z" transform="translate(-7.09 -1.69)"/><path class="cls-1" d="M229,173.14c0,1.14,0,2.29,0,3.44a17.34,17.34,0,0,1-2,7.72,11.71,11.71,0,0,1-2.32,3.09,8.25,8.25,0,0,1-6.27,2.35,8.41,8.41,0,0,1-3.06-.8,10.44,10.44,0,0,1-2.7-1.8,25.39,25.39,0,0,1-5.08-6.41,71.48,71.48,0,0,1-5-10.71,111.33,111.33,0,0,1-4.76-16.71c-.52-2.45-1-4.91-1.32-7.39a46.34,46.34,0,0,1-.42-8.81,17.32,17.32,0,0,1,2.9-9,10.68,10.68,0,0,1,2.18-2.42,8,8,0,0,1,8.71-1,11.27,11.27,0,0,1,2.89,2,25.38,25.38,0,0,1,4.24,5.06c.77,1.19,1.46,2.42,2.12,3.67a90,90,0,0,1,7.77,21.07A97.23,97.23,0,0,1,228.82,167c.13,1.08.18,2.17.23,3.26s0,1.94,0,2.92Z" transform="translate(-7.09 -1.69)"/><path class="cls-1" d="M36.65,198.5a5.71,5.71,0,0,1-2.27,4.84,18.3,18.3,0,0,1-9.19,4,4.37,4.37,0,0,1-4.69-3.2,4.44,4.44,0,0,1-.11-1.92,7.16,7.16,0,0,1,2.76-4.68,15.51,15.51,0,0,1,8-3.36,7.92,7.92,0,0,1,2.28,0,3.71,3.71,0,0,1,3.19,3.58C36.66,198,36.65,198.27,36.65,198.5Z" transform="translate(-7.09 -1.69)"/><path class="cls-1" d="M31,102.05v2.65a2.1,2.1,0,0,1-.14.86.63.63,0,0,1-.7.42,2,2,0,0,1-.59-.18,26.06,26.06,0,0,1-3.33-1.8,1.65,1.65,0,0,1-.33-2.81c.34-.36.73-.67,1.11-1a15.92,15.92,0,0,1,2.31-1.61,2.2,2.2,0,0,1,.81-.33.62.62,0,0,1,.72.38,2.14,2.14,0,0,1,.13.87c0,.85,0,1.7,0,2.55Z" transform="translate(-7.09 -1.69)"/><path class="cls-1" d="M23.59,162.87H21.2a4.11,4.11,0,0,1-.7,0,1.19,1.19,0,0,1-1.09-1,5.43,5.43,0,0,1,1.16-5,3.67,3.67,0,0,1,1.93-1.18,4.88,4.88,0,0,1,3.42.42,3.2,3.2,0,0,1,1.42,1.42,6.05,6.05,0,0,1,.5,4.28,1.22,1.22,0,0,1-1.16,1,5.62,5.62,0,0,1-.71,0H23.59Z" transform="translate(-7.09 -1.69)"/><path class="cls-1" d="M201,265.11c0,.38,0,.76,0,1.14a2.49,2.49,0,0,1-.31,1.09,1.67,1.67,0,0,1-1.52.88.76.76,0,0,1-.79-.57,2.23,2.23,0,0,1-.1-.43,29.07,29.07,0,0,1-.18-4.47,2,2,0,0,1,.12-.69,1,1,0,0,1,1.37-.59,1.78,1.78,0,0,1,.78.68,4,4,0,0,1,.63,1.9c0,.35,0,.7,0,1.06Z" transform="translate(-7.09 -1.69)"/><path class="cls-1" d="M167.74,274.57a13.93,13.93,0,0,1-.16,3,6,6,0,0,1-.72,2.07,2.81,2.81,0,0,1-2,1.37,1.5,1.5,0,0,1-1.85-1.09,4.42,4.42,0,0,1-.18-1c-.12-1.58-.23-3.17-.34-4.75-.09-1.26-.2-2.52-.28-3.78-.09-1.5-.17-3-.25-4.49a4.17,4.17,0,0,1,0-.79,1.18,1.18,0,0,1,1.36-1.09,3,3,0,0,1,2.1,1,5.47,5.47,0,0,1,.85,1.33,11.58,11.58,0,0,1,1,3.46A21.3,21.3,0,0,1,167.74,274.57Z" transform="translate(-7.09 -1.69)"/><path class="cls-1" d="M289.48,267.09a6.34,6.34,0,0,1-.16,1.57,2.83,2.83,0,0,1-.68,1.32,1.55,1.55,0,0,1-1.94.31,2.58,2.58,0,0,1-.75-.61,5.84,5.84,0,0,1-1-1.53,26.34,26.34,0,0,1-2.31-8.47,4.68,4.68,0,0,1,.25-2,3.66,3.66,0,0,1,.41-.87,1.64,1.64,0,0,1,2.52-.43,4.93,4.93,0,0,1,.68.69,8.1,8.1,0,0,1,1.18,2.06,25.81,25.81,0,0,1,1.77,7.08C289.46,266.5,289.46,266.79,289.48,267.09Z" transform="translate(-7.09 -1.69)"/><path class="cls-1" d="M238.32,269.1a6.46,6.46,0,0,1-.88,0,.68.68,0,0,1-.67-.76,1.6,1.6,0,0,1,0-.44q.25-1.42.54-2.85a2.32,2.32,0,0,1,.19-.58.67.67,0,0,1,1.15-.18,2.17,2.17,0,0,1,.31.42,20.12,20.12,0,0,1,1.37,2.94,2.19,2.19,0,0,1,.1.34.72.72,0,0,1-.49.9,3.84,3.84,0,0,1-1.21.2h-.44Z" transform="translate(-7.09 -1.69)"/><path class="cls-1" d="M143,276.32c-.26,0-.53,0-.79,0a.75.75,0,0,1-.73-.74,2.09,2.09,0,0,1,0-.61c.19-1,.4-2,.61-2.92a3.38,3.38,0,0,1,.11-.34.67.67,0,0,1,1.24-.13,1.87,1.87,0,0,1,.2.29,18.85,18.85,0,0,1,1.4,2.94c0,.08.05.16.08.25.14.63,0,.94-.66,1.1A5.77,5.77,0,0,1,143,276.32Z" transform="translate(-7.09 -1.69)"/></svg>