<svg id="Capa_1" data-name="Capa 1" xmlns="http://www.w3.org/2000/svg" viewBox="0 0 420.6 396.74"><defs><style>.cls-1{fill:#0454a2;}</style></defs><title>logo5</title><path class="cls-1" d="M139.23,64.84q13.89-.44,27.77-1c10.09-.43,20.19-1,30.28-1.39,6.05-.27,12.1-.47,18.15-.71q19.8-.78,39.6-1.57c6.62-.26,13.25-.46,19.88-.72,9.57-.39,19.13-.82,28.7-1.22L333.27,57q21.06-.84,42.13-1.64c2.8-.11,2.91-.06,3.05,2.68.33,6.25.55,12.51.8,18.77q.79,20,1.58,40.07c.36,9.31.65,18.62,1.05,27.93.54,12.62,1.16,25.23,1.71,37.85.29,6.68.47,13.36.73,20q.65,16.56,1.31,33.13h.07c0,1.05-.08,2.11,0,3.16.12,1.21-.29,1.72-1.54,1.77-7.21.28-14.41.62-21.61.91q-24.69,1-49.38,2c-10.52.41-21,.8-31.56,1.24-11.57.48-23.13,1-34.7,1.5-9.36.38-18.72.67-28.08,1.06-10.36.44-20.72,1-31.08,1.4-6,.26-12,.46-18,.7l-40.23,1.57-27.93,1q-8.76.35-17.51.76c-1.75.08-2.14-.19-2.22-2-.37-8.79-.71-17.57-1.07-26.35Q79.91,201.75,79,179c-.37-9.42-.66-18.83-1-28.25-.56-13.51-1.17-27-1.75-40.53-.15-3.42-.16-6.85-.43-10.26-.48-6-.13-12.1-.75-18.09-.43-4.15.12-8.28-.45-12.4-.21-1.47.47-2,2-2.08Zm-10.88,122.7c.17-1.8,0-4.35.75-6.8.83-2.7,2.66-3.27,4.92-1.52a24,24,0,0,1,3,2.79c3.73,4.14,7.51,8.25,11.26,12.37,6.21,6.81,12.39,13.64,18.63,20.41,2.78,3,5.46,6.14,8.46,9s6.55,2,8.25-1.61a13.27,13.27,0,0,0,.87-2.53,38.83,38.83,0,0,0,.94-8.46c.22-11.9-.85-23.77-1.08-35.66-.06-3.11-.31-6.21-.41-9.31-.24-7.41-.82-14.83-.06-22.24.3-2.91.74-5.73,3.72-7.41,3.59-2,4.31-5.42,3.72-9.15a7.4,7.4,0,0,0-6.47-6.47,49.65,49.65,0,0,0-19.91.55,7.61,7.61,0,0,0-5.26,3.73,8.43,8.43,0,0,0,2.69,11.37,10,10,0,0,1,4.65,7,89.28,89.28,0,0,1,1.09,13.05,15.58,15.58,0,0,1-.55,4.06c-.46,1.88-1.91,2.45-3.65,1.56a8.94,8.94,0,0,1-2.35-1.85q-15.63-16.73-31.25-33.47c-2.71-2.91-5.8-4.71-10-4.42-2.77.19-5.57.13-8.35.42a23.1,23.1,0,0,0-7.5,1.78c-3.17,1.47-5.34,3.72-5.62,7.38s1.46,6.18,4.52,7.86a9.7,9.7,0,0,1,5,6.76c.34,1.49.73,3,1,4.47a157.66,157.66,0,0,1,1.79,18.53c.65,11.15.76,22.31.46,33.47-.09,3.25-1,6.19-3.83,8.3a6.92,6.92,0,0,0-3,4.81,8.88,8.88,0,0,0,4.72,9.37c4.15,2.35,8.67,2.41,13.22,2.1,4.07-.28,8.06-1,11.49-3.46a8.29,8.29,0,0,0,.2-13.59,11.42,11.42,0,0,1-4.93-8.56C128.86,197.51,128.57,192.89,128.35,187.54Zm152.23-15a45.59,45.59,0,0,0-1-10.83c-2.55-13.67-7.81-26-18.38-35.49-9.33-8.39-20.29-10.89-32.33-7.89-13.19,3.29-22.06,11.93-27.51,24.08-5.71,12.72-6.81,26-4.28,39.71,1.91,10.29,5.74,19.68,12.55,27.72a38.38,38.38,0,0,0,18.73,12.32c17.48,5.1,34.68-4.2,43.38-18C277.73,194.66,280.5,184.28,280.58,172.49Zm61.26-5.91c-.2-6.18-.63-12.9-2.67-19.4a9.53,9.53,0,0,0-2.46-4.17,3.55,3.55,0,0,0-5.22,0,6.5,6.5,0,0,0-2.07,4.15c-.25,2.14-.41,4.29-.63,6.44-.36,3.49-1.58,4.61-5.07,4.64-.58,0-1.16,0-1.74,0-3.07-.23-3.9-1.12-4.22-4.19-.46-4.4-.24-8.83-.56-13.24a22.71,22.71,0,0,1,.19-5.52,4.92,4.92,0,0,1,4.13-4.38c3.49-.76,7-.56,10.53-.48,6.11.13,10.17,3.15,12.79,8.47a14.39,14.39,0,0,0,1.42,2.27,4.6,4.6,0,0,0,7.89-.34,11,11,0,0,0,1.58-5.4,36.07,36.07,0,0,0-.35-7.56c-.82-4.92-2-9.71-5.32-13.66-1.94-2.3-3.63-2.71-6.42-1.51a30.12,30.12,0,0,1-7.87,2.24c-4.81.63-9.65.77-14.49,1-6.94.29-13.89.43-20.82.78-4.15.21-8.33.13-12.44.87-3.19.57-5.11,2.78-5.46,6.24-.38,3.73.79,5.93,4.07,7.12a6.12,6.12,0,0,1,4.06,4.45,60.39,60.39,0,0,1,1.66,8.84c.95,7.79,1.41,15.61,1.75,23.44a236.17,236.17,0,0,1-.31,31.7c-.35,3.86-1.66,6.88-5,8.91a4.19,4.19,0,0,0-1.83,2.3c-1.54,4.63,1.44,8.81,6.28,8.8.53,0,1.05,0,1.58-.06l12.3-.52c7.41-.31,14.82-.7,22.24-.88,7.19-.17,14.4-1,21.58.32,3.67.69,4.69.19,6.26-3.18a64.91,64.91,0,0,0,5.72-22.69,14,14,0,0,0-2.34-9.17c-1.88-2.73-5-2.89-7.16-.32a11.92,11.92,0,0,0-1.87,3.63c-.7,1.93-1.29,3.9-2,5.81a14.93,14.93,0,0,1-11.74,9.69,38.69,38.69,0,0,1-12.1.45,4.58,4.58,0,0,1-4.48-4.13,118.25,118.25,0,0,1-1.72-16.79,22.3,22.3,0,0,1,.34-5A3.78,3.78,0,0,1,324,172.9c3,.07,5.31,1.9,6.19,5.15.59,2.18,1,4.41,1.51,6.61a3.27,3.27,0,0,0,2.44,2.82,4,4,0,0,0,4-1.4,9.22,9.22,0,0,0,1.9-3.77C341.44,177.35,341.77,172.27,341.84,166.58ZM324.22,82.4c-2.86,0-5.69.25-8.18,1.89-1.79,1.18-2.38,2.52-1.56,4.44.95,2.22.33,3.85-1.29,5.37A28.33,28.33,0,0,0,309,98.84a6.61,6.61,0,0,0-.3,7c1,2,3,2.46,5,2.38,10.17-.4,17.21-5.94,22.29-14.21,2.33-3.79.76-7.75-3.24-9.77A17.58,17.58,0,0,0,324.22,82.4Z" transform="translate(-0.19 -1.04)"/><path class="cls-1" d="M96.06,296.67c-1.75,0-3,0-4.27,0a8.36,8.36,0,0,1-8.15-7.22c-.54-3.24-.29-6.51-.53-9.77-.31-4.41-.34-8.83-.44-13.25-.06-2.32.23-2.62,2.58-2.78,2.94-.21,5.89-.2,8.84-.34,9.36-.44,18.72-.68,28.08-1.08,12.57-.54,25.13-1.16,37.7-1.72,5.84-.26,11.67-.46,17.51-.69q20.2-.78,40.39-1.57c9.31-.36,18.62-.67,27.93-1.05,14-.57,28-1.19,42-1.77,8.15-.35,16.31-.67,24.46-1q22.88-.91,45.75-1.84c7-.28,14-.5,21-.75,1.84-.07,3.68-.17,5.52-.27,1.23-.07,1.84.43,1.89,1.72.29,7.47.7,14.94.92,22.4.16,5.79-3.42,9.35-9.21,9.57q-21.69.79-43.39,1.66c-14,.57-28.08,1.23-42.12,1.81-13.83.57-27.66,1.08-41.49,1.62l-32.82,1.29c-13.3.53-26.61,1-39.91,1.61-14.3.63-28.6,1.35-42.91,1.85C122.08,295.55,108.83,296.15,96.06,296.67Z" transform="translate(-0.19 -1.04)"/><path class="cls-1" d="M33.78,25c-.94-6.57,5.48-10.3,10.28-10.64,5.2-.36,10.41-.47,15.61-.73,1.48-.07,2.07.54,2.12,2,.38,9.94.81,19.88,1.21,29.81.56,14.1,1,28.19,1.69,42.28.2,4.15.15,8.3.72,12.45.32,2.28,0,4.69.07,7.06.51,12.2.91,24.4,1.4,36.6.59,14.36,1.26,28.71,1.86,43.06.44,10.68.83,21.35,1.25,32q.81,20.82,1.61,41.65.63,15.62,1.27,31.23c.06,1.37.18,2.73.24,4.1,0,.8-.17,1.58-1.11,1.61-6.25.16-12.49,1.14-18.75.34A11.75,11.75,0,0,1,48,295.73,7.93,7.93,0,0,1,44.49,289c-.42-12.36-.82-24.72-1.38-37.07-.46-10.2-.76-20.41-1.27-30.6-.77-15.35-1.32-30.71-2-46.06-.42-9.25-.68-18.51-1-27.77-.5-12.62-1-25.23-1.54-37.85-.37-9.31-.66-18.62-1.06-27.93-.42-10-1-20-1.39-30-.29-6.63-.48-13.26-.73-19.88C34,29.6,33.88,27.29,33.78,25Z" transform="translate(-0.19 -1.04)"/><path class="cls-1" d="M315.44,30.43c9.36-.36,18.73-.67,28.08-1.06q15.63-.63,31.23-1.37c2.38-.11,2.53,0,2.62,2.32.17,4,.34,8.09.57,12.14.09,1.4-.39,2-1.84,2.06-6.94.26-13.88.59-20.82.88L315.69,47c-6.52.25-13.05.45-19.56.72q-20,.84-39.91,1.74c-5.46.23-10.93.47-16.4.69q-24,.95-48,1.89c-9.31.36-18.62.67-27.93,1-12,.49-24.07,1-36.11,1.51L94.16,56c-6.1.26-12.2.5-18.3.78-1.52.07-1.92-.8-1.92-2.06q0-5.13,0-10.26c-.38-4.37-1-4.15,3.86-4.33,10.21-.38,20.4-.93,30.6-1.36l89.69-3.57c9.36-.37,18.72-.67,28.08-1.06Z" transform="translate(-0.19 -1.04)"/><path class="cls-1" d="M369.31,1c3.11,0,6.71,3.29,7.11,8.1.18,2.15.19,4.31.3,6.47.06,1.25-.62,1.64-1.76,1.68q-8.67.3-17.35.66l-38,1.55-30.92,1.28q-18.3.76-36.6,1.51c-6.94.27-13.89.47-20.83.75-11.88.47-23.76,1-35.65,1.49q-9.93.41-19.87.72a63.62,63.62,0,0,0-7.56.57A52.75,52.75,0,0,1,161,26c-5,0-10,.38-15,.59-6.31.28-12.62.57-18.93.82q-24.28,1-48.59,1.89c-1.26,0-2.53,0-3.79.07-1.07,0-1.68-.41-1.72-1.56-.07-2.1-.26-4.2-.27-6.31a8.46,8.46,0,0,1,8.45-8.78c11.36-.45,22.72-.82,34.07-1.35,14.36-.68,28.71-1.36,43.07-1.84,10.78-.37,21.56-.82,32.34-1.26,14.25-.59,28.49-1.22,42.74-1.8,7-.29,14-.46,21-.76,10-.43,20.08-1,30.12-1.38,7-.3,14.09-.49,21.14-.77q22.56-.9,45.12-1.83C356.32,1.46,362,1.29,369.31,1Z" transform="translate(-0.19 -1.04)"/><path class="cls-1" d="M252.34,186.31a21.83,21.83,0,0,1-1.29,8.7,10.79,10.79,0,0,1-2.8,4.15,6.75,6.75,0,0,1-8,1.05,13.57,13.57,0,0,1-5.79-6.08,103.8,103.8,0,0,1-10.48-33.76c-.56-4.29-.93-8.59.3-12.84a17,17,0,0,1,2.06-4.77,7,7,0,0,1,10-2.17c3.62,2.24,5.78,5.7,7.45,9.4A94.22,94.22,0,0,1,252.34,186.31Z" transform="translate(-0.19 -1.04)"/><g id="plqWjq.tif"><path class="cls-1" d="M193.33,397.7c-5.05,0-10.1.19-15.14,0-7.54-.35-15.08-.61-22.61-1.2q-9.14-.72-18.24-1.62c-4.77-.46-9.51-1.13-14.26-1.73-5.26-.66-10.52-1.31-15.77-2-6-.82-11.9-1.74-17.85-2.61-5-.72-10-1.38-15-2.14q-6.93-1.06-13.9-1.62a142.92,142.92,0,0,0-23.5-.32,88.63,88.63,0,0,0-20,3.9,58.69,58.69,0,0,0-7.76,3.16,6.63,6.63,0,0,1-5.4.66,5.35,5.35,0,0,1-3.68-4.57c-.16-2.47.5-4.55,2.88-5.74a84.44,84.44,0,0,1,23-7.57,115,115,0,0,1,22.3-1.59,215.72,215.72,0,0,1,24.07,2c8.07,1.05,16.09,2.42,24.15,3.52,8.52,1.16,17,2.44,25.55,3.57,4.88.64,9.78,1.05,14.66,1.64,5.73.69,11.47,1.17,17.22,1.62,3.55.29,7.11.48,10.66.69,11.61.67,23.23,1.11,34.85.83,9.79-.23,19.58-.51,29.35-1.21,6.6-.47,13.2-.95,19.79-1.56,6.41-.59,12.8-1.37,19.2-2.13,5.51-.66,11-1.36,16.52-2.14,5.79-.83,11.56-1.76,17.34-2.66,5.15-.8,10.3-1.6,15.44-2.46s10.51-1.8,15.77-2.72c5.76-1,11.52-2,17.28-3,4.83-.87,9.66-1.8,14.49-2.68,4.59-.83,9.18-1.62,13.76-2.45,5.59-1,11.16-2.07,16.75-3.09,4.74-.88,9.49-1.73,14.24-2.6l4-.76c4.28-.85,7.62,1.92,7.32,6.07a5.38,5.38,0,0,1-4.5,5c-8.17,1.5-16.33,3-24.49,4.53-6.46,1.19-12.93,2.33-19.39,3.51s-13.07,2.44-19.61,3.62c-5.71,1-11.44,2-17.15,3-7,1.21-13.93,2.47-20.91,3.62-6.48,1.06-13,2-19.47,3-5.07.77-10.14,1.53-15.21,2.22-4.16.57-8.33,1.06-12.5,1.55-4.88.57-9.76,1.13-14.65,1.64-3.92.42-7.85.82-11.78,1.13-6.68.52-13.35,1.14-20.05,1.39s-13.38.72-20.09.59c-2.54-.05-5.09,0-7.64,0Z" transform="translate(-0.19 -1.04)"/><path class="cls-1" d="M151,340.65a25.76,25.76,0,0,0-.19-5.95,7.47,7.47,0,0,1,.41-3.51,3.14,3.14,0,0,1,4.47-1.51,1.84,1.84,0,0,1,.84,1.86c-.08,1-.24,2-.3,3,0,.46.07,1,.57,1.17s.73-.38.94-.72c.92-1.52,1.79-3.07,2.74-4.57a3.65,3.65,0,0,1,3.52-2.06,2.47,2.47,0,0,1,2.47,2.38c.14,1.13.31,2.26.5,3.39.15.84.61,1,1.22.37s1.22-1.4,1.84-2.1a7.46,7.46,0,0,1,4.41-2.8c1.93-.3,3,.4,3.13,2.32.42,4.67,1.16,9.34.26,14a24.23,24.23,0,0,1-1.45,5.24c-.56,1.27-3.36,1.71-4.33.7-.71-.73-.3-1.53-.07-2.27a28.18,28.18,0,0,0,1.31-9.25c0-1.45-.31-2.86-.48-4.29,0-.35-.12-.69-.54-.75a.82.82,0,0,0-.84.46c-.57.94-1.14,1.89-1.65,2.86a58.34,58.34,0,0,0-2.9,6.63,3.23,3.23,0,0,1-.85,1.53c-1,.79-2.08,1.48-3.37,1s-1.65-1.8-1.58-3.05c.09-1.73.39-3.45.54-5.18.06-.78.29-2-.43-2.19s-.92,1-1.24,1.67c-1.2,2.38-2.15,4.88-3.5,7.19a3.05,3.05,0,0,1-2.05,1.75c-1.93.38-3-.48-3.26-2.71A27.18,27.18,0,0,1,151,340.65Z" transform="translate(-0.19 -1.04)"/><path class="cls-1" d="M305.34,340.47a24.2,24.2,0,0,1-1.33,10,3,3,0,0,1-4.28,1.74c-.91-.45-.85-1.26-.6-2a26.16,26.16,0,0,0,1.43-7.83,40.17,40.17,0,0,0-.3-5.7c-.05-.5,0-1.22-.72-1.33s-.83.53-1.08.94a55.9,55.9,0,0,0-4.29,9.05,6.39,6.39,0,0,1-.47,1,3.75,3.75,0,0,1-3.66,1.53c-1.39-.49-1.51-1.69-1.5-2.92a17.63,17.63,0,0,1,.34-4.16,5.44,5.44,0,0,0,.16-1.39c0-.69.26-1.7-.54-1.91s-.88.86-1.15,1.41c-1.25,2.5-2.24,5.11-3.67,7.52a2.81,2.81,0,0,1-2.52,1.64,2.14,2.14,0,0,1-2.5-2,17,17,0,0,1-.44-4c0-3,0-5.92,0-8.87a5.45,5.45,0,0,1,.53-2.46,3.1,3.1,0,0,1,3.76-1.35c1.08.28,1.45,1.06,1.32,2.65-.08.93-.09,1.86-.11,2.79,0,.3,0,.63.37.74a.75.75,0,0,0,.78-.32,11.66,11.66,0,0,0,1.43-2.24,27.31,27.31,0,0,1,2.07-3.34,3.32,3.32,0,0,1,3.38-1.28,2.13,2.13,0,0,1,2,1.85c.16,1.09.29,2.18.47,3.27.07.5.1,1.12.63,1.3s.78-.4,1.08-.73c.75-.8,1.43-1.68,2.21-2.45,1.39-1.4,3-2.37,5.1-2a1.91,1.91,0,0,1,1.7,1.91c.09,1.48.26,2.95.42,4.42A41.06,41.06,0,0,1,305.34,340.47Z" transform="translate(-0.19 -1.04)"/><path class="cls-1" d="M16.91,350a16.35,16.35,0,0,1-7-1.35c-1.65-.74-2-1.86-1.24-3.51a4.83,4.83,0,0,1,1.46-1.74,1.31,1.31,0,0,1,2.1.21A3.24,3.24,0,0,0,14.89,345a5.75,5.75,0,0,1,1.48.32c2.38.86,4.44,0,6.37-1.24,1.25-.8,1.22-2.47.1-3.81a31.31,31.31,0,0,0-5.74-5,38.81,38.81,0,0,1-8.2-7.36c-1.1-1.41-1.11-2.09.16-3.39a13.06,13.06,0,0,1,4.74-3.12,69.5,69.5,0,0,1,12.58-3,2.7,2.7,0,0,1,2.07.42,1.76,1.76,0,0,1-.24,3.22,22.94,22.94,0,0,1-6.16,1.45A20,20,0,0,0,16.28,325c-1.63.76-1.77,1.42-.6,2.79a26.51,26.51,0,0,0,4.58,4c1.61,1.17,3.21,2.36,4.77,3.59a8.69,8.69,0,0,1,2.88,4c1.31,3.61-1.22,8.17-5.53,9.66A15.65,15.65,0,0,1,16.91,350Z" transform="translate(-0.19 -1.04)"/><path class="cls-1" d="M308,348.2a125.85,125.85,0,0,1,1.28-13.6,7,7,0,0,0-.12-2.74c-.32-1.25.54-2.42.65-3.68a2.35,2.35,0,0,1,2.39-2.19c1.48-.18,2.19.23,2.45,1.71a1.82,1.82,0,0,0,2,1.68,13,13,0,0,1,4.27,1.15c4.16,1.82,4.69,6.74,1.07,9.51a13,13,0,0,1-4.7,1.85c-1.34.38-2.7.72-4.05,1.08a1.36,1.36,0,0,0-1.08,1.11,16.38,16.38,0,0,0,1.54,11.31c.7,1.31.36,2-1.1,2.12-2.38.14-3.67-.93-4-3.6C308.31,351.73,307.78,349.56,308,348.2Zm5-10.87c0,1.83.39,2.23,2.24,2.1a5,5,0,0,0,4.43-3.42,2.09,2.09,0,0,0-1.3-2.86c-2.76-1.17-4-.6-5,2.2A5.85,5.85,0,0,0,313,337.33Z" transform="translate(-0.19 -1.04)"/><path class="cls-1" d="M149.39,334.1a24.08,24.08,0,0,1-1,6.37c-.5,2.41-.53,4.87-.87,7.3a9.49,9.49,0,0,1-.66,2.43c-.43,1-1.63,1.35-2.14.52-1.27-2.07-3.4-1.74-5.26-2.18-.79-.19-1.6-.29-2.36-.53a6,6,0,0,1-2.84-9.43c1.95-2.68,4.72-3.72,7.89-4a17.36,17.36,0,0,1,2,0c.87,0,1.49-.21,1.56-1.23s-.1-1.79-1.19-2.08a6.27,6.27,0,0,0-3.73.42c-.88.31-1.74.68-2.6,1s-1.65.45-2.18-.54c-.64-1.17-.65-2.68.14-3.15,3.12-1.85,6.46-2.57,10-1.29,2.09.76,2.89,2.61,3.18,4.69A13,13,0,0,1,149.39,334.1Zm-7.13,11.35c.51-.07,1.39.29,1.72-.62a11.57,11.57,0,0,0,1-5.42c-.11-1-.58-1.32-1.55-1.09-1.28.3-2.57.52-3.84.83a4.23,4.23,0,0,0-2.25,1.35,2.36,2.36,0,0,0,.83,4A8.61,8.61,0,0,0,142.26,345.45Z" transform="translate(-0.19 -1.04)"/><path class="cls-1" d="M233.1,355.06c0,.55,0,1.1,0,1.65,0,1-.26,1.77-1.43,1.85a1.88,1.88,0,0,1-2.19-1.49c-.6-2.1-.45-4.28-.7-6.42-.37-3.16-.22-6.35-.7-9.49-.06-.38-.05-.77-.1-1.14-.39-2.67-.4-2.69-2.9-1.73a5,5,0,0,1-2.37.29,1.79,1.79,0,0,1-1.74-1.41,1.73,1.73,0,0,1,1.14-2.05,24.33,24.33,0,0,1,3.15-.95c2.43-.62,3.07-1.37,3.33-3.81s.61-5,.94-7.55a2,2,0,0,1,1.72-1.92c1.28-.16,2.6-.21,3.52.9.43.53.18,1.21-.07,1.82a21.59,21.59,0,0,0-1.66,8.4c0,1,.31,1.45,1.42,1.32a36.81,36.81,0,0,1,3.93-.2,1.51,1.51,0,0,1,1.64.95,1.76,1.76,0,0,1-.77,1.88,3.26,3.26,0,0,1-2.1.8c-1.23.08-2.45.24-3.68.23s-1.48.62-1.45,1.6c.07,2,.11,4.06.26,6.09.25,3.46.58,6.91.87,10.37Z" transform="translate(-0.19 -1.04)"/><path class="cls-1" d="M246.82,333.7a22.79,22.79,0,0,0,.94,8.61,5.74,5.74,0,0,0,.63,1.51c.61.94,1.41.79,2.17.18a9.21,9.21,0,0,0,3.52-6.39,12.51,12.51,0,0,0-1.52-8.09,8.55,8.55,0,0,1-.62-1.38,1.64,1.64,0,0,1,.22-1.9,2,2,0,0,1,2-.47,5.65,5.65,0,0,1,3.92,4.75,19.5,19.5,0,0,1-1.9,12.83c-1.57,3-4,4.91-7.6,4.84a4.8,4.8,0,0,1-4-2.14,16.84,16.84,0,0,1-2.8-7.94,43.24,43.24,0,0,1,0-8.36,2.8,2.8,0,0,1,4.34-2.1,1.48,1.48,0,0,1,.65,1.43v2.29C246.83,332.09,246.82,332.81,246.82,333.7Z" transform="translate(-0.19 -1.04)"/><path class="cls-1" d="M60.07,333.42a24.42,24.42,0,0,0,1,9.06c.65,2.32,1.75,2.6,3.48.91,3.18-3.12,3.92-8.81,1.71-13.11-.35-.68-.7-1.36-1-2.06a1.62,1.62,0,0,1,.11-1.9,2,2,0,0,1,2.23-.51,5.53,5.53,0,0,1,3.72,4.48,19.35,19.35,0,0,1-2.09,13.51A7.94,7.94,0,0,1,62,348.2a5.09,5.09,0,0,1-4.6-2.88,18.4,18.4,0,0,1-2.4-9.23q0-3,.1-6.09a2.73,2.73,0,0,1,4.24-2.37,1.62,1.62,0,0,1,.75,1.63c0,.72,0,1.44,0,2.16S60.07,332.85,60.07,333.42Z" transform="translate(-0.19 -1.04)"/><path class="cls-1" d="M364.85,350.23a5.88,5.88,0,0,1-5.7-3.1,2.06,2.06,0,0,1,.9-3,1.53,1.53,0,0,1,2.21.46,4.4,4.4,0,0,0,6.63.58c1.5-1.34,1.37-3.05-.47-4s-3.69-1.69-5.55-2.51a8.53,8.53,0,0,1-3.3-2.52,3.5,3.5,0,0,1-.18-4.65,8.19,8.19,0,0,1,9.9-3.12,17.71,17.71,0,0,1,3.46,1.58,4.41,4.41,0,0,1,1.45,1.4,2.18,2.18,0,0,1,0,2.51,1.7,1.7,0,0,1-2.2.4c-1.31-.58-2.55-1.33-3.84-2a3.92,3.92,0,0,0-3.54-.31c-1.05.5-1.35,1.28-.72,2.25a4.63,4.63,0,0,0,2.18,1.87,32.94,32.94,0,0,1,5.47,2.67c3.7,2.39,3.87,6.25.4,9.07A10.46,10.46,0,0,1,364.85,350.23Z" transform="translate(-0.19 -1.04)"/><path class="cls-1" d="M202.6,350.23c-3.54,0-5.64-.72-6.93-3a2.11,2.11,0,0,1,1-3.17,1.51,1.51,0,0,1,2.09.55,4.41,4.41,0,0,0,6.72.45,2.26,2.26,0,0,0-.4-3.82,55.5,55.5,0,0,0-5.66-2.58,8.79,8.79,0,0,1-3.49-2.68,3.48,3.48,0,0,1,0-4.58,9.94,9.94,0,0,1,4.76-3.45,5.73,5.73,0,0,1,4.69.21c1,.46,2,.79,2.92,1.25a7.2,7.2,0,0,1,1.58,1c1.29,1.12,1.56,2.32.82,3.33-.6.81-1.62.86-3.13.1-.94-.48-1.85-1-2.79-1.51a8,8,0,0,0-1.54-.59c-1.17-.32-2.8.14-3.1.91-.47,1.26.48,2,1.23,2.69a10.45,10.45,0,0,0,3.18,1.55,22.93,22.93,0,0,1,4,2.2c2.6,1.83,3.1,3.9,1.47,6.67A9,9,0,0,1,202.6,350.23Z" transform="translate(-0.19 -1.04)"/><path class="cls-1" d="M351.14,349c-3.82.31-7.17-2.45-8.45-6.82a19,19,0,0,1-.75-7.65c.71-6,6.56-7.63,10.89-5.32a8.43,8.43,0,0,1,4.42,5.9,2.7,2.7,0,0,1-.82,2.75,24.76,24.76,0,0,1-4.19,2.85c-1,.65-2.08,1.31-3.08,2s-1,1.44,0,2.21c1.54,1.2,3.17.89,4.82.29.4-.14.78-.33,1.18-.48,1.1-.42,1.69-.06,1.8,1.11a2.49,2.49,0,0,1-1.89,2.66A13,13,0,0,1,351.14,349Zm-5.2-13c0,1.62.47,2.54,1.44,2.67a5.47,5.47,0,0,0,5.19-3.19,1.92,1.92,0,0,0-.81-2.52,4,4,0,0,0-4.21-.42C346.16,333.22,346,334.54,345.94,336Z" transform="translate(-0.19 -1.04)"/><path class="cls-1" d="M83.51,348.54a13.19,13.19,0,0,1-5.14-.84,8.54,8.54,0,0,1-5.82-7.85,12.64,12.64,0,0,1,4.64-10.77,20.86,20.86,0,0,1,5-3.68,5.52,5.52,0,0,1,4.09-.32,1.34,1.34,0,0,1,1,1.87,4.54,4.54,0,0,1-2.7,2.86c-2,.94-4,1.82-5.51,3.55a7.16,7.16,0,0,0-1.51,7.55,6.33,6.33,0,0,0,9.85,2.25,1.66,1.66,0,0,1,.32-.22c.76-.42,1.58-1.26,2.4-.55s.35,1.85-.08,2.7C88.66,347.75,86.38,348.75,83.51,348.54Z" transform="translate(-0.19 -1.04)"/><path class="cls-1" d="M325.49,329.58a2.63,2.63,0,0,1,2-2.77,2.68,2.68,0,0,1,3,1.21,5.14,5.14,0,0,1,.76,2.14c.17,1.13.77,1.24,1.56.61s1.73-1.5,2.6-2.24a3.16,3.16,0,0,1,4.19-.42c1,.61,1.16,1.21.44,2.17a16.94,16.94,0,0,1-2.88,2.86c-.52.43-1,.91-1.57,1.29-2.57,1.75-2.89,4.54-3.38,7.24a3,3,0,0,0,.64,2,4.1,4.1,0,0,1-.38,5.26,2.47,2.47,0,0,1-2.84.89,2.4,2.4,0,0,1-1.79-2.48A89.63,89.63,0,0,0,327,335.2a21.6,21.6,0,0,0-1.19-4.14A4.46,4.46,0,0,1,325.49,329.58Z" transform="translate(-0.19 -1.04)"/><path class="cls-1" d="M400.22,342.49c.51-2.88-.09-5.75,0-8.62a6.9,6.9,0,0,1,.29-2.25,1.93,1.93,0,0,1,2.47-1.39c1.21.18,1.46,1,1.37,2-.05.63-.17,1.26-.28,1.88-.07.4-.11.8.29,1s.65-.23.84-.5c.47-.65.89-1.34,1.35-2a4.7,4.7,0,0,1,1.8-1.57c1.67-.8,2.8-.37,3.55,1.32,1.42,3.21,1.54,6.64,1.78,10.06.1,1.35.13,2.7.21,4s-.37,1.81-1.75,2c-1.62.19-2,0-2.19-1.49-.48-3.1-.13-6.26-.69-9.36-.09-.5.16-1.28-.52-1.42s-.9.65-1.18,1.13a58.9,58.9,0,0,0-2.81,6.53c-.88,2-1.64,2.71-2.9,2.48-1.06-.2-1.56-1.25-1.59-3.39Z" transform="translate(-0.19 -1.04)"/><path class="cls-1" d="M116.18,342.51c.86-3.39-.47-7,.21-10.57a1.88,1.88,0,0,1,2.08-1.76,1.76,1.76,0,0,1,1.89,2.14c-.08.67-.24,1.33-.34,2,0,.34-.06.74.3.89s.6-.22.79-.48c.49-.69.94-1.4,1.43-2.1a4,4,0,0,1,1.93-1.59c1.67-.56,2.73-.36,3.38,1.28a28,28,0,0,1,1.72,9.3,33.93,33.93,0,0,0,.33,4.93c.23,1.19-.47,1.85-1.9,2s-1.9-.1-2.09-1.44c-.47-3.24-.21-6.52-.74-9.74-.07-.44,0-1.11-.48-1.21s-.78.56-1,1c-1.34,2.18-1.93,4.68-3.05,7a15.62,15.62,0,0,1-.75,1.47,1.86,1.86,0,0,1-2.1.82,1.53,1.53,0,0,1-1.28-1.53C116.38,344.12,116.29,343.41,116.18,342.51Z" transform="translate(-0.19 -1.04)"/><path class="cls-1" d="M46.75,332.25a63.71,63.71,0,0,0-.88-8.2,8,8,0,0,1,.58-4.09,2.42,2.42,0,0,1,2.14-1.56c1.72-.19,2.55.44,2.44,2.17-.2,3-.14,6.09-.13,9.14,0,4.44.09,8.88.16,13.33a14.07,14.07,0,0,1-1,5.21,2.25,2.25,0,0,1-3,1.6A2.08,2.08,0,0,1,45.52,347C46.84,342.11,46.44,337.09,46.75,332.25Z" transform="translate(-0.19 -1.04)"/><path class="cls-1" d="M101.32,336.15a9.25,9.25,0,0,1,1.7-5.57c.51-.78,1.07-1.52,1.56-2.31a3.63,3.63,0,0,1,5.61-1,9.71,9.71,0,0,1,3.19,4.93c1.59,4.5-.56,8.19-3.25,10.88-1,1-3.39,1.15-4.8.37A7.57,7.57,0,0,1,101.32,336.15Zm8.6-.13a6.18,6.18,0,0,0-1.28-3.92,1.18,1.18,0,0,0-1.87-.18,6.55,6.55,0,0,0-2,2.87,2.71,2.71,0,0,0,.43,3.07,3.44,3.44,0,0,0,3.41.77A2.39,2.39,0,0,0,109.92,336Z" transform="translate(-0.19 -1.04)"/><path class="cls-1" d="M30.9,335.68a9.12,9.12,0,0,1,1.73-5.05c.54-.86,1.14-1.69,1.7-2.54A3.41,3.41,0,0,1,39,326.82a4.19,4.19,0,0,1,1.25.85c4.4,4.78,4.44,10.82-.7,15.48-1.36,1.23-3.24,1-4.8.17C32,341.8,30.93,339.3,30.9,335.68Zm8.71.44a6.11,6.11,0,0,0-1.21-3.85,1.3,1.3,0,0,0-2.24-.2,7.48,7.48,0,0,0-1.8,2.72,2.58,2.58,0,0,0,.52,3.14,3.09,3.09,0,0,0,3.3.71A2.41,2.41,0,0,0,39.61,336.12Z" transform="translate(-0.19 -1.04)"/><path class="cls-1" d="M391.54,343.84c-2.69.33-5.38-2.6-6-5.24a10.08,10.08,0,0,1,1.66-8.32c.48-.7,1-1.39,1.43-2.1a3.38,3.38,0,0,1,4.88-1.3c2.44,1.33,3.42,3.69,4,6.19,1,4-.66,7.1-3.32,9.86A3.19,3.19,0,0,1,391.54,343.84Zm2.5-7.92a6.29,6.29,0,0,0-1.44-3.85,1.07,1.07,0,0,0-1.66-.26,5.81,5.81,0,0,0-2.35,3.78,2.66,2.66,0,0,0,2.72,3.21C393,338.91,394,337.84,394,335.92Z" transform="translate(-0.19 -1.04)"/><path class="cls-1" d="M181.29,335.84a8.8,8.8,0,0,1,1.71-5.28c.53-.81,1.1-1.59,1.63-2.41a3.43,3.43,0,0,1,4.9-1.26c2.11,1.12,3,3.13,3.78,5.21,1.57,4.37-.2,7.83-3.14,10.9-1,1.08-3.41,1.23-4.9.42C182.42,341.85,181.24,339.34,181.29,335.84Zm8.63.1a6.38,6.38,0,0,0-1.19-3.68,1.27,1.27,0,0,0-2.14-.24,6.74,6.74,0,0,0-1.94,2.93,2.58,2.58,0,0,0,.52,2.94,3.45,3.45,0,0,0,3.43.72C189.73,338.07,189.9,337,189.92,335.94Z" transform="translate(-0.19 -1.04)"/><path class="cls-1" d="M269.79,342.13c.51-3.12-.06-6.34.82-9.43a2.82,2.82,0,0,1,4.29-1.79,1.45,1.45,0,0,1,.66,2.29,6.74,6.74,0,0,0-.91,3.25,10.66,10.66,0,0,1-.28,2.25,11.1,11.1,0,0,0,0,4.9c.06.33.13.66.16,1,.14,1.81-.17,2.38-1.32,2.53-2.11.27-2.71-.13-3.1-2A17.08,17.08,0,0,1,269.79,342.13Z" transform="translate(-0.19 -1.04)"/><path class="cls-1" d="M376.69,342.33c.61-3-.09-6.28.76-9.44a2.87,2.87,0,0,1,4.2-2.06,1.52,1.52,0,0,1,.81,2.43,6,6,0,0,0-.9,3.25c.06,2.07-1,4.05-.49,6.16a11.59,11.59,0,0,1,.46,2.63c0,1.1-.4,1.76-1.6,1.85-1.85.13-2.68-.26-2.88-1.51C376.88,344.6,376.81,343.54,376.69,342.33Z" transform="translate(-0.19 -1.04)"/><path class="cls-1" d="M92.84,340.68a41.94,41.94,0,0,1,.51-7.52c.49-2.28,2.37-3.28,4.36-2.31a1.5,1.5,0,0,1,.76,2.37,4.58,4.58,0,0,0-.73,2c-.16,2.83-1.4,5.62-.42,8.51a2.84,2.84,0,0,1,.07.88c.08,2.32-.28,2.68-2.58,2.53-1.18-.08-1.75-.67-1.9-2.1A26.11,26.11,0,0,1,92.84,340.68Z" transform="translate(-0.19 -1.04)"/><path class="cls-1" d="M393.59,324.46a3.29,3.29,0,0,1-1.61-.27c-.84-.45-1.13-1.25-.5-1.87,1.46-1.46,2.7-3.29,5-3.7a6.17,6.17,0,0,1,.62-.08c.95-.05,2-.06,2.47.89s-.27,1.67-.87,2.3C397.28,323.18,395.77,324.46,393.59,324.46Z" transform="translate(-0.19 -1.04)"/><path class="cls-1" d="M97,322.14c1.59,0,2.37.64,2.39,2a3,3,0,0,1-2.83,3.13,2.7,2.7,0,0,1-2.68-2.38C93.85,323.14,95,322.16,97,322.14Z" transform="translate(-0.19 -1.04)"/><path class="cls-1" d="M274.06,322.15c1.54,0,2.46.67,2.5,1.89a3.24,3.24,0,0,1-2.82,3.21,2.46,2.46,0,0,1-2.63-2.46C271.1,323,272,322.17,274.06,322.15Z" transform="translate(-0.19 -1.04)"/><path class="cls-1" d="M381.07,322.15c1.54,0,2.39.74,2.37,2a3.12,3.12,0,0,1-2.94,3.07,2.52,2.52,0,0,1-2.53-2.57C378,323,379.08,322.12,381.07,322.15Z" transform="translate(-0.19 -1.04)"/></g></svg>