<?xml version="1.0" encoding="utf-8"?>
<!-- Generator: Adobe Illustrator 24.0.2, SVG Export Plug-In . SVG Version: 6.00 Build 0)  -->
<svg version="1.1" xmlns="http://www.w3.org/2000/svg" xmlns:xlink="http://www.w3.org/1999/xlink" x="0px" y="0px"
	 viewBox="0 0 2546.67 1133.33" style="enable-background:new 0 0 2546.67 1133.33;" xml:space="preserve">
<style type="text/css">
	.st0{display:none;}
	.st1{display:inline;fill:#E01435;}
	.st2{fill:#E01435;}
	.st3{display:none;fill:#E01435;}
</style>
<g id="Capa_1">
</g>
<g id="Logo">
	<g>
		<g>
			<path d="M529.71,66.67c5.28,0,10.05,1.62,14.3,4.84c4.25,3.23,6.67,8.07,7.26,14.52v44.45c0,5.87-1.76,10.93-5.28,15.18
				c-3.52,4.26-8.95,6.38-16.28,6.38H346.62v547.96c0,5.28-1.76,9.98-5.28,14.08c-3.52,4.11-8.51,6.16-14.96,6.16h-44.45
				c-5.28,0-9.98-1.9-14.08-5.72c-4.11-3.81-6.16-8.65-6.16-14.52V152.05H77.7c-5.87,0-10.71-1.76-14.52-5.28
				c-3.82-3.52-5.72-8.95-5.72-16.28V86.03c0-5.87,1.9-10.56,5.72-14.08c3.81-3.52,8.65-5.28,14.52-5.28H529.71z"/>
			<path d="M692.12,87.79c0-14.08,6.45-21.13,19.37-21.13h253.96c29.34,0,56.63,5.5,81.86,16.5c25.23,11,47.24,25.97,66.02,44.89
				c18.77,18.93,33.52,41.08,44.23,66.46c10.71,25.38,16.06,52.45,16.06,81.2c0,20.54-2.86,40.27-8.58,59.2s-13.72,36.46-23.99,52.6
				c-10.27,16.14-22.6,30.59-36.97,43.35c-14.38,12.76-30.37,23.4-47.97,31.91l116.19,238.11v5.72c0,9.1-5.43,13.64-16.28,13.64
				h-53.26c-9.1,0-16.14-5.43-21.13-16.28L976,482.15c-2.35,0.3-4.92,0.44-7.7,0.44c-2.79,0-6.75,0.08-11.88,0.22
				c-5.14,0.15-11.96,0.22-20.47,0.22c-8.51,0-19.74,0-33.67,0c-13.94,0-31.03,0-51.28,0s-44.75,0-73.5,0v217.86
				c0,12.92-6.75,19.37-20.25,19.37h-45.77c-12.92,0-19.37-6.45-19.37-19.37V87.79z M1089.11,274.85c0-16.13-3.16-31.69-9.46-46.65
				c-6.31-14.96-14.96-28.17-25.97-39.61c-11-11.44-24.06-20.61-39.17-27.51c-15.12-6.89-31.47-10.34-49.07-10.34H777.5v248.23
				h189.7c17.31,0,33.45-3.37,48.41-10.12c14.96-6.75,27.87-15.84,38.73-27.29c10.85-11.44,19.37-24.65,25.53-39.61
				C1086.03,306.98,1089.11,291.28,1089.11,274.85z"/>
			<path d="M2348.31,209.27c-4.11-2.64-10.86-7.77-20.25-15.4c-9.39-7.63-20.91-15.4-34.55-23.33
				c-13.64-7.92-28.98-15.03-45.99-21.35c-17.02-6.31-35.36-9.46-55.02-9.46c-23.18,0-43.13,2.79-59.86,8.36
				c-16.72,5.58-30.52,12.98-41.37,22.23c-10.86,9.24-18.86,19.66-23.99,31.25c-5.14,11.59-7.7,23.26-7.7,34.99
				c0,16.44,5.43,30.22,16.29,41.37c10.85,11.15,25.23,20.84,43.13,29.05c17.89,8.22,38.22,15.62,60.96,22.23
				c22.74,6.6,45.92,13.58,69.54,20.91c23.62,7.34,46.8,15.56,69.54,24.65c22.74,9.1,43.06,20.4,60.96,33.89
				c17.89,13.5,32.27,29.64,43.13,48.41c10.85,18.78,16.28,41.52,16.28,68.22c0,30.81-6.38,58.76-19.15,83.84
				s-30.22,46.51-52.38,64.26c-22.16,17.76-48.19,31.47-78.12,41.15c-29.93,9.68-62.06,14.52-96.39,14.52
				c-22.89,0-45.55-2.57-68-7.7c-22.45-5.13-44.01-12.61-64.7-22.45c-20.69-9.83-39.98-21.79-57.88-35.87
				c-17.9-14.08-33.89-30.22-47.97-48.41c-3.82-4.69-5.65-9.39-5.5-14.08c0.14-4.69,2.71-9.09,7.7-13.2l34.77-29.05
				c4.99-4.11,9.83-5.94,14.52-5.5c4.69,0.44,8.95,3.01,12.76,7.7l5.72,5.72c12.32,13.8,26.33,25.75,42.03,35.87
				c15.69,10.12,31.39,18.49,47.09,25.09c15.69,6.6,30.73,11.52,45.11,14.74c14.37,3.23,26.55,4.84,36.53,4.84
				c17.89,0,36.24-2.34,55.02-7.04c18.77-4.69,35.94-11.88,51.5-21.57c15.55-9.68,28.31-21.93,38.29-36.75
				c9.97-14.81,14.96-32.2,14.96-52.16c0-16.72-4.92-30.88-14.74-42.47c-9.83-11.59-23.11-21.71-39.83-30.37
				c-16.72-8.65-36.31-16.43-58.76-23.33c-22.45-6.89-46.43-14.15-71.96-21.79c-35.21-10.27-65.43-21.05-90.67-32.35
				c-25.24-11.29-45.99-23.77-62.28-37.41c-16.28-13.64-28.24-28.9-35.87-45.77c-7.63-16.87-11.44-35.87-11.44-57
				c0-26.7,5.35-51.12,16.06-73.28c10.71-22.15,25.89-41.3,45.55-57.44c19.65-16.13,43.35-28.68,71.08-37.63
				c27.73-8.95,58.76-13.42,93.09-13.42c18.49,0,37.7,2.35,57.66,7.04c19.95,4.7,39.39,11.22,58.32,19.59
				c18.93,8.36,36.67,18.34,53.26,29.93c16.57,11.59,30.88,24.43,42.91,38.51c4.11,4.4,6.23,9.02,6.38,13.86
				c0.14,4.84-2.13,9.46-6.82,13.86l-31.25,29.93c-4.7,4.4-9.46,6.46-14.3,6.16C2356.89,215.58,2352.42,213.38,2348.31,209.27z"/>
		</g>
		<g>
			<path class="st2" d="M1771.67,68.05h54.93c6.36,0,11.51,5.15,11.51,11.51v313.99c0,46.24-37.49,83.73-83.73,83.73l-378.18,0
				c-46.24,0-83.73-37.49-83.73-83.73l0-313.99c0-6.36,5.15-11.51,11.51-11.51l54.93,0c6.36,0,11.51,5.15,11.51,11.51v181.02h156.41
				V122.07c0-6.36,5.15-11.51,11.51-11.51h55.5c6.36,0,11.51,5.15,11.51,11.51v137.91h154.82V79.56
				C1760.17,73.2,1765.32,68.05,1771.67,68.05z"/>
			<rect x="1308.73" y="592" class="st2" width="513.12" height="54.25"/>
			<path class="st2" d="M1837.83,719.75h-545.07c-0.16,0-0.28-0.13-0.28-0.28v-48.24h545.64v48.24
				C1838.11,719.63,1837.99,719.75,1837.83,719.75z"/>
			<path class="st2" d="M1806.54,569.43h-482.5v-53.97c0-0.16,0.13-0.28,0.28-0.28h481.93c0.16,0,0.28,0.13,0.28,0.28V569.43z"/>
		</g>
		<g>
			<path d="M265.49,847.53l-13.83,20.5c-19.87-14.23-44.67-22.75-71.73-22.75c-58.42,0.73-116.6,41.17-118.69,111.65
				c0.82,61.59,50.23,110.23,118.69,111.65c27.06,0,51.86-8.52,71.73-22.75l13.83,20.5c-23.94,16.96-53.58,26.96-85.57,26.96
				c-86.19,0-143.39-61.8-143.39-136.35c0-74.54,57.2-136.35,143.39-136.35C211.91,820.57,241.55,830.58,265.49,847.53z"/>
			<path d="M524.01,826.62l94.86,260.34h-26.13l-25.77-70.72H450.71l-25.77,70.72h-26.13l94.86-260.34H524.01z M459.66,991.69h98.37
				L508.84,856.7L459.66,991.69z"/>
			<path d="M906.27,841.49l-12.72,21.08c-18.06-10.24-34.83-16.95-56.17-16.95c-26.66,0-51.82,15.24-51.82,42.04
				c0,34.57,35.04,43.46,59.57,50.82c36.31,10.13,74.84,31.16,76.86,76.6c0,38.96-31.05,78.2-86.37,78.2
				c-24.16,0-53.43-7.07-81.04-25.49l13.29-22.53c19.79,12.58,43.12,20.65,66.77,21.2h0.1h0.1c36.17,0,60.32-23.61,60.32-51.39
				c-0.56-31.54-36.44-46.81-65.15-54.32c-33.07-8.75-71.28-28.28-71.28-73.1c0-37.87,35.16-67.38,78.8-67.38
				C867.51,820.27,887.55,830.47,906.27,841.49z"/>
			<path d="M1150.02,826.62h25.95h94.44v24.62h-95.1v235.72h-24.62V851.24h-95.1v-24.62H1150.02z"/>
			<path d="M1448.51,826.62v260.34h-24.62V826.62H1448.51z"/>
			<path d="M1626.39,826.62v235.72h147.91v24.62h-172.52V826.62H1626.39z"/>
			<path d="M1952.5,826.62v235.72h147.91v24.62h-172.52V826.62H1952.5z"/>
			<path d="M2506.79,956.82c0,75.21-61.24,136.45-136.45,136.45c-75.21,0-136.45-61.24-136.45-136.45
				c0-75.21,61.24-136.45,136.45-136.45C2445.55,820.37,2506.79,881.61,2506.79,956.82z M2258.64,956.82
				c0,61.83,49.87,111.69,111.7,111.69c61.83,0,111.7-49.86,111.7-111.69c0-61.83-49.87-111.7-111.7-111.7
				C2308.51,845.12,2258.64,894.99,2258.64,956.82z"/>
		</g>
		<rect x="57.89" y="1117.49" class="st3" width="2381.4" height="17.13"/>
	</g>
</g>
</svg>
