<svg id="Capa_1" data-name="Capa 1" xmlns="http://www.w3.org/2000/svg" viewBox="0 0 353.51 297.12"><defs><style>.cls-1{fill:#0454a2;}</style></defs><title>logo3</title><path class="cls-1" d="M109.88,67.05q13.89-.43,27.77-1c10.1-.43,20.19-1,30.29-1.39,6-.27,12.09-.47,18.14-.71l39.6-1.57c6.63-.25,13.25-.46,19.88-.72,9.57-.39,19.14-.82,28.71-1.22l29.66-1.22q21.06-.84,42.12-1.64c2.8-.11,2.92-.06,3.06,2.68.32,6.25.54,12.51.79,18.77q.8,20,1.58,40.07c.36,9.31.66,18.62,1,27.93.54,12.62,1.17,25.23,1.71,37.85.29,6.68.48,13.36.74,20q.63,16.56,1.3,33.13h.08c0,1-.08,2.11,0,3.16.11,1.21-.3,1.72-1.55,1.77-7.2.28-14.41.63-21.61.91q-24.69,1-49.38,2c-10.52.41-21,.8-31.55,1.24-11.57.48-23.14,1-34.7,1.5-9.36.38-18.73.67-28.09,1.06-10.36.44-20.71.95-31.07,1.4-6,.26-12,.46-18,.7l-40.23,1.57c-9.31.36-18.62.69-27.93,1.05q-8.74.34-17.5.76c-1.76.08-2.15-.19-2.23-2q-.55-13.19-1.06-26.35-.93-22.8-1.86-45.59c-.37-9.42-.66-18.83-1.05-28.25-.55-13.51-1.17-27-1.75-40.53-.15-3.42-.15-6.85-.43-10.26-.48-6-.13-12.1-.75-18.09-.42-4.15.12-8.28-.45-12.4-.2-1.47.48-2,2-2.08ZM99,189.75c.18-1.79,0-4.35.75-6.8.83-2.7,2.66-3.27,4.92-1.52a23.28,23.28,0,0,1,3,2.79c3.73,4.15,7.51,8.25,11.27,12.37,6.2,6.81,12.38,13.64,18.62,20.41,2.79,3,5.46,6.14,8.47,8.95s6.55,2,8.25-1.61a14,14,0,0,0,.86-2.53,37.63,37.63,0,0,0,.94-8.46c.22-11.9-.85-23.77-1.08-35.66-.06-3.11-.31-6.21-.41-9.31-.24-7.41-.81-14.83-.06-22.24.3-2.91.75-5.73,3.72-7.41,3.59-2,4.31-5.42,3.72-9.15a7.4,7.4,0,0,0-6.47-6.47,49.6,49.6,0,0,0-19.9.55,7.57,7.57,0,0,0-5.26,3.73A8.41,8.41,0,0,0,133,138.76a10.05,10.05,0,0,1,4.65,7,89.27,89.27,0,0,1,1.08,13.05,15.57,15.57,0,0,1-.54,4.06c-.46,1.89-1.92,2.45-3.65,1.56a8.78,8.78,0,0,1-2.35-1.85Q116.59,145.84,101,129.1c-2.72-2.91-5.81-4.71-10-4.42-2.78.19-5.58.13-8.36.42a23,23,0,0,0-7.49,1.78c-3.18,1.47-5.35,3.72-5.62,7.39S71,140.44,74,142.12a9.71,9.71,0,0,1,5,6.77c.33,1.48.72,3,1,4.46a157.68,157.68,0,0,1,1.8,18.53c.64,11.15.75,22.31.45,33.47-.09,3.25-1,6.19-3.83,8.3a7,7,0,0,0-3,4.81,8.89,8.89,0,0,0,4.72,9.37c4.15,2.35,8.68,2.41,13.22,2.1,4.07-.28,8.06-1,11.5-3.46a8.3,8.3,0,0,0,.2-13.59,11.44,11.44,0,0,1-4.94-8.56C99.51,199.72,99.22,195.1,99,189.75ZM251.24,174.7a46.11,46.11,0,0,0-1-10.83c-2.56-13.67-7.81-26-18.38-35.49-9.34-8.39-20.29-10.89-32.34-7.89-13.19,3.29-22.05,11.93-27.51,24.08-5.7,12.72-6.8,26-4.27,39.71,1.9,10.29,5.73,19.68,12.54,27.72A38.36,38.36,0,0,0,199,224.32c17.48,5.1,34.67-4.2,43.38-18C248.38,196.87,251.15,186.49,251.24,174.7Zm61.25-5.91c-.2-6.18-.63-12.9-2.66-19.4a9.65,9.65,0,0,0-2.47-4.17,3.54,3.54,0,0,0-5.21,0,6.52,6.52,0,0,0-2.07,4.15c-.26,2.14-.41,4.29-.63,6.44-.36,3.49-1.59,4.61-5.08,4.64-.58,0-1.16,0-1.74,0-3.07-.23-3.9-1.12-4.22-4.19-.45-4.4-.24-8.83-.56-13.24a23.66,23.66,0,0,1,.19-5.51,4.93,4.93,0,0,1,4.13-4.39c3.49-.76,7-.56,10.53-.48,6.11.13,10.17,3.15,12.79,8.47a14.39,14.39,0,0,0,1.42,2.27,4.6,4.6,0,0,0,7.89-.34,11.16,11.16,0,0,0,1.59-5.4A36.76,36.76,0,0,0,326,130c-.82-4.92-2-9.71-5.31-13.66-1.94-2.3-3.64-2.71-6.43-1.51a30,30,0,0,1-7.87,2.24c-4.81.63-9.65.77-14.49,1-6.94.29-13.88.43-20.82.78-4.15.21-8.32.13-12.43.87-3.19.57-5.12,2.78-5.47,6.24-.38,3.73.79,5.93,4.07,7.12a6.12,6.12,0,0,1,4.06,4.45,60.41,60.41,0,0,1,1.67,8.84c.94,7.79,1.41,15.61,1.75,23.45a237.71,237.71,0,0,1-.32,31.69c-.35,3.87-1.66,6.88-5,8.91a4.15,4.15,0,0,0-1.83,2.3c-1.55,4.63,1.43,8.81,6.27,8.8.53,0,1.06,0,1.58-.06l12.3-.52c7.42-.31,14.83-.7,22.24-.88,7.2-.17,14.4-1,21.59.33,3.67.68,4.68.18,6.25-3.19a64.42,64.42,0,0,0,5.72-22.69,14,14,0,0,0-2.34-9.17c-1.87-2.73-5-2.89-7.16-.32a11.9,11.9,0,0,0-1.86,3.63c-.71,1.93-1.3,3.9-2.06,5.81a14.9,14.9,0,0,1-11.74,9.69,38.68,38.68,0,0,1-12.1.45,4.58,4.58,0,0,1-4.47-4.13,116.81,116.81,0,0,1-1.72-16.79,22.89,22.89,0,0,1,.33-5,3.77,3.77,0,0,1,4.24-3.53c3,.06,5.32,1.9,6.19,5.14.59,2.18,1,4.41,1.52,6.61a3.27,3.27,0,0,0,2.43,2.82,4,4,0,0,0,4-1.4,9.22,9.22,0,0,0,1.9-3.77C312.1,179.56,312.43,174.48,312.49,168.79ZM294.88,84.61c-2.86,0-5.69.25-8.18,1.89-1.8,1.19-2.39,2.52-1.56,4.44.94,2.22.32,3.85-1.3,5.37a29.26,29.26,0,0,0-4.15,4.74,6.61,6.61,0,0,0-.29,7c1,2,3,2.46,5,2.38,10.17-.4,17.21-5.94,22.28-14.2,2.33-3.8.76-7.76-3.23-9.78A17.58,17.58,0,0,0,294.88,84.61Z" transform="translate(-4.34 -3.25)"/><path class="cls-1" d="M66.71,298.88c-1.74,0-3,0-4.27,0a8.38,8.38,0,0,1-8.15-7.22c-.54-3.24-.29-6.51-.52-9.77-.32-4.4-.35-8.83-.45-13.25,0-2.32.23-2.62,2.59-2.78,2.94-.21,5.89-.2,8.83-.34,9.36-.44,18.73-.68,28.09-1.08,12.56-.54,25.13-1.16,37.69-1.72,5.84-.26,11.68-.46,17.52-.68q20.19-.8,40.39-1.58c9.31-.36,18.62-.67,27.93-1,14-.57,28-1.19,42-1.77q12.23-.52,24.45-1,22.88-.93,45.75-1.85c7-.28,14-.5,21-.75,1.84-.07,3.68-.17,5.52-.27,1.23-.07,1.84.43,1.89,1.72.3,7.47.71,14.94.92,22.41.17,5.78-3.42,9.34-9.21,9.56q-21.69.8-43.39,1.66c-14,.57-28.07,1.23-42.11,1.81-13.83.57-27.67,1.08-41.5,1.62l-32.82,1.29c-13.3.53-26.61,1-39.91,1.61-14.3.63-28.6,1.35-42.91,1.85C92.74,297.76,79.49,298.36,66.71,298.88Z" transform="translate(-4.34 -3.25)"/><path class="cls-1" d="M4.43,27.19c-.94-6.57,5.48-10.3,10.29-10.64,5.19-.36,10.4-.47,15.61-.72,1.48-.08,2.06.53,2.12,2,.37,9.94.81,19.88,1.2,29.81.56,14.1,1,28.19,1.69,42.28.2,4.15.15,8.3.73,12.45.31,2.28,0,4.7.06,7.06.51,12.2.91,24.4,1.41,36.6.58,14.36,1.25,28.71,1.85,43.06q.66,16,1.25,32,.81,20.82,1.62,41.65.62,15.62,1.26,31.23c.06,1.37.18,2.73.25,4.1,0,.8-.18,1.58-1.12,1.61-6.25.16-12.49,1.14-18.75.34a11.8,11.8,0,0,1-5.22-2.12,8,8,0,0,1-3.54-6.69c-.42-12.36-.82-24.72-1.38-37.07-.46-10.2-.75-20.41-1.27-30.6-.77-15.35-1.32-30.71-2-46.06-.41-9.25-.67-18.51-1-27.77-.5-12.62-1-25.23-1.54-37.85C7.54,102.59,7.25,93.28,6.85,84,6.43,74,5.9,64,5.46,54,5.18,47.38,5,40.75,4.73,34.13,4.65,31.81,4.53,29.5,4.43,27.19Z" transform="translate(-4.34 -3.25)"/><path class="cls-1" d="M286.1,32.64c9.36-.36,18.72-.67,28.08-1.06q15.61-.63,31.23-1.37c2.37-.11,2.52,0,2.61,2.32.17,4,.34,8.09.58,12.14.08,1.4-.39,2-1.84,2.06-6.94.26-13.88.59-20.82.88l-39.6,1.57c-6.52.25-13,.45-19.56.72q-19.95.84-39.9,1.74-8.2.36-16.41.69-24,.95-48,1.89c-9.31.36-18.62.67-27.92,1-12,.49-24.08,1-36.12,1.51l-33.66,1.4c-6.1.26-12.2.5-18.3.78-1.52.07-1.92-.8-1.92-2.06,0-3.42,0-6.84,0-10.26-.38-4.37-1-4.15,3.86-4.33,10.2-.38,20.39-.93,30.59-1.36l89.69-3.57c9.36-.37,18.72-.67,28.08-1.06Z" transform="translate(-4.34 -3.25)"/><path class="cls-1" d="M340,3.25c3.1,0,6.71,3.29,7.1,8.1.18,2.15.19,4.31.3,6.47.06,1.25-.62,1.64-1.75,1.68q-8.69.3-17.36.66l-38,1.55L259.33,23q-18.3.77-36.6,1.51c-6.94.27-13.88.47-20.83.75-11.88.47-23.76,1-35.64,1.49q-9.94.41-19.88.72a63.46,63.46,0,0,0-7.55.57,51.34,51.34,0,0,1-7.23.14c-5,0-10,.38-15,.59-6.31.28-12.61.57-18.92.82q-24.3,1-48.6,1.89c-1.26.05-2.52,0-3.79.07-1.07,0-1.68-.41-1.72-1.56-.07-2.1-.26-4.2-.27-6.31a8.47,8.47,0,0,1,8.46-8.78c11.35-.45,22.71-.82,34.07-1.35,14.35-.68,28.7-1.36,43.06-1.84,10.78-.36,21.56-.82,32.34-1.26,14.25-.59,28.5-1.22,42.75-1.8,7-.29,14-.46,21-.76,10-.43,20.08-1,30.12-1.38,7-.3,14.1-.49,21.15-.77q22.54-.9,45.11-1.83C327,3.67,332.61,3.5,340,3.25Z" transform="translate(-4.34 -3.25)"/><path class="cls-1" d="M223,188.53a21.77,21.77,0,0,1-1.28,8.69,10.83,10.83,0,0,1-2.8,4.15,6.76,6.76,0,0,1-8,1,13.57,13.57,0,0,1-5.79-6.08,103.54,103.54,0,0,1-10.47-33.76c-.57-4.29-.94-8.59.29-12.84A17.27,17.27,0,0,1,197,145,7,7,0,0,1,207,142.8c3.62,2.24,5.77,5.7,7.44,9.4A94.23,94.23,0,0,1,223,188.53Z" transform="translate(-4.34 -3.25)"/></svg>